<svg id="calendar_1_" data-name="calendar (1)" xmlns="http://www.w3.org/2000/svg" width="15.055" height="15.055" viewBox="0 0 15.055 15.055">
  <g id="Group_2784" data-name="Group 2784">
    <g id="Group_2783" data-name="Group 2783">
      <path id="Path_618" data-name="Path 618" d="M14.467,10.35a.588.588,0,0,0,.588-.588V3.529A2.355,2.355,0,0,0,12.7,1.176h-.765V.588a.588.588,0,1,0-1.176,0v.588H8.086V.588a.588.588,0,0,0-1.176,0v.588H4.264V.588a.588.588,0,0,0-1.176,0v.588H2.352A2.355,2.355,0,0,0,0,3.529V12.7a2.355,2.355,0,0,0,2.352,2.352H12.7A2.355,2.355,0,0,0,15.055,12.7a.588.588,0,1,0-1.176,0A1.178,1.178,0,0,1,12.7,13.879H2.352A1.178,1.178,0,0,1,1.176,12.7V3.529A1.178,1.178,0,0,1,2.352,2.352h.735V2.94a.588.588,0,0,0,1.176,0V2.352H6.91V2.94a.588.588,0,0,0,1.176,0V2.352h2.676V2.94a.588.588,0,0,0,1.176,0V2.352H12.7a1.178,1.178,0,0,1,1.176,1.176V9.762A.588.588,0,0,0,14.467,10.35Z" fill="#7e7e7e"/>
    </g>
  </g>
  <g id="Group_2786" data-name="Group 2786" transform="translate(3.075 5.549)">
    <g id="Group_2785" data-name="Group 2785" transform="translate(0 0)">
      <ellipse id="Ellipse_107" data-name="Ellipse 107" cx="0.742" cy="0.495" rx="0.742" ry="0.495" fill="#7e7e7e"/>
    </g>
  </g>
  <g id="Group_2788" data-name="Group 2788" transform="translate(8.022 5.549)">
    <g id="Group_2787" data-name="Group 2787" transform="translate(0 0)">
      <ellipse id="Ellipse_108" data-name="Ellipse 108" cx="0.742" cy="0.495" rx="0.742" ry="0.495" fill="#7e7e7e"/>
    </g>
  </g>
  <g id="Group_2790" data-name="Group 2790" transform="translate(10.496 5.549)">
    <g id="Group_2789" data-name="Group 2789" transform="translate(0 0)">
      <ellipse id="Ellipse_109" data-name="Ellipse 109" cx="0.742" cy="0.495" rx="0.742" ry="0.495" fill="#7e7e7e"/>
    </g>
  </g>
  <g id="Group_2792" data-name="Group 2792" transform="translate(3.075 8.022)">
    <g id="Group_2791" data-name="Group 2791" transform="translate(0 0)">
      <circle id="Ellipse_110" data-name="Ellipse 110" cx="0.742" cy="0.742" r="0.742" fill="#7e7e7e"/>
    </g>
  </g>
  <g id="Group_2794" data-name="Group 2794" transform="translate(3.075 10.496)">
    <g id="Group_2793" data-name="Group 2793" transform="translate(0 0)">
      <circle id="Ellipse_111" data-name="Ellipse 111" cx="0.742" cy="0.742" r="0.742" fill="#7e7e7e"/>
    </g>
  </g>
  <g id="Group_2796" data-name="Group 2796" transform="translate(5.549 5.549)">
    <g id="Group_2795" data-name="Group 2795" transform="translate(0 0)">
      <ellipse id="Ellipse_112" data-name="Ellipse 112" cx="0.742" cy="0.495" rx="0.742" ry="0.495" fill="#7e7e7e"/>
    </g>
  </g>
  <g id="Group_2798" data-name="Group 2798" transform="translate(5.549 8.022)">
    <g id="Group_2797" data-name="Group 2797" transform="translate(0 0)">
      <circle id="Ellipse_113" data-name="Ellipse 113" cx="0.742" cy="0.742" r="0.742" fill="#7e7e7e"/>
    </g>
  </g>
  <g id="Group_2800" data-name="Group 2800" transform="translate(5.549 10.496)">
    <g id="Group_2799" data-name="Group 2799" transform="translate(0 0)">
      <circle id="Ellipse_114" data-name="Ellipse 114" cx="0.742" cy="0.742" r="0.742" fill="#7e7e7e"/>
    </g>
  </g>
  <g id="Group_2802" data-name="Group 2802" transform="translate(8.022 8.022)">
    <g id="Group_2801" data-name="Group 2801" transform="translate(0 0)">
      <circle id="Ellipse_115" data-name="Ellipse 115" cx="0.742" cy="0.742" r="0.742" fill="#7e7e7e"/>
    </g>
  </g>
  <g id="Group_2804" data-name="Group 2804" transform="translate(10.496 8.022)">
    <g id="Group_2803" data-name="Group 2803" transform="translate(0 0)">
      <circle id="Ellipse_116" data-name="Ellipse 116" cx="0.742" cy="0.742" r="0.742" fill="#7e7e7e"/>
    </g>
  </g>
  <g id="Group_2806" data-name="Group 2806" transform="translate(8.022 10.496)">
    <g id="Group_2805" data-name="Group 2805" transform="translate(0 0)">
      <circle id="Ellipse_117" data-name="Ellipse 117" cx="0.742" cy="0.742" r="0.742" fill="#7e7e7e"/>
    </g>
  </g>
</svg>
