<svg xmlns="http://www.w3.org/2000/svg" width="260.139" height="148.626" viewBox="0 0 260.139 148.626"><defs><style>.a{fill:#4d8af0;}.a,.b,.c,.d{opacity:0.5;}.b{fill:#f55f44;}.c,.e{fill:#47e6b1;}.f{fill:#fff;}.g{fill:#3f3d56;}.h{fill:#e6e6e6;}.i{fill:#131313;}.j{fill:#ccc;}.k{fill:#2f2e41;}.l{fill:#ffb8b8;}.m{fill:#7e7e7e;}.n{fill:#d0d0d0;}</style></defs><g transform="translate(-57 -78.688)"><g transform="translate(56.996 78.688)"><path class="a" d="M327.024,109.32a1.112,1.112,0,0,1-.62-1.344.533.533,0,0,0,.024-.123h0a.558.558,0,0,0-1-.37h0a.532.532,0,0,0-.062.11,1.112,1.112,0,0,1-1.344.62.534.534,0,0,0-.123-.024h0a.558.558,0,0,0-.37,1h0a.534.534,0,0,0,.109.062,1.112,1.112,0,0,1,.62,1.344.536.536,0,0,0-.024.123h0a.558.558,0,0,0,1,.37h0a.536.536,0,0,0,.062-.11,1.112,1.112,0,0,1,1.344-.62.535.535,0,0,0,.123.024h0a.558.558,0,0,0,.37-1h0A.536.536,0,0,0,327.024,109.32Z" transform="translate(-276.987 -94.804)"/><path class="a" d="M181.024,434.32a1.112,1.112,0,0,1-.62-1.344.534.534,0,0,0,.024-.123h0a.558.558,0,0,0-1-.37h0a.535.535,0,0,0-.062.109,1.112,1.112,0,0,1-1.344.62.536.536,0,0,0-.123-.024h0a.558.558,0,0,0-.37,1h0a.535.535,0,0,0,.11.062,1.112,1.112,0,0,1,.62,1.344.535.535,0,0,0-.024.123h0a.558.558,0,0,0,1,.37h0a.533.533,0,0,0,.062-.109,1.112,1.112,0,0,1,1.344-.62.538.538,0,0,0,.123.024h0a.558.558,0,0,0,.37-1h0a.535.535,0,0,0-.11-.062Z" transform="translate(-175.182 -321.426)"/><circle class="b" cx="1.816" cy="1.816" r="1.816" transform="translate(224.728 75.07)"/><circle class="b" cx="1.816" cy="1.816" r="1.816" transform="translate(255.603 144.993)"/><path class="a" d="M866.024,138.32a1.112,1.112,0,0,1-.62-1.344.531.531,0,0,0,.024-.123h0a.558.558,0,0,0-1-.37h0a.532.532,0,0,0-.062.11,1.112,1.112,0,0,1-1.344.62.534.534,0,0,0-.123-.024h0a.558.558,0,0,0-.37,1h0a.536.536,0,0,0,.11.062,1.112,1.112,0,0,1,.62,1.344.531.531,0,0,0-.024.123h0a.558.558,0,0,0,1,.37h0a.538.538,0,0,0,.062-.11,1.112,1.112,0,0,1,1.344-.62.534.534,0,0,0,.123.024h0a.558.558,0,0,0,.37-1h0A.535.535,0,0,0,866.024,138.32Z" transform="translate(-652.832 -115.026)"/><path class="a" d="M174.024,244.32a1.112,1.112,0,0,1-.62-1.344.536.536,0,0,0,.024-.123h0a.558.558,0,0,0-1-.37h0a.535.535,0,0,0-.062.11,1.112,1.112,0,0,1-1.344.62.535.535,0,0,0-.123-.024h0a.558.558,0,0,0-.37,1h0a.534.534,0,0,0,.11.062,1.112,1.112,0,0,1,.62,1.344.534.534,0,0,0-.024.123h0a.558.558,0,0,0,1,.37h0a.533.533,0,0,0,.062-.109,1.112,1.112,0,0,1,1.344-.62.535.535,0,0,0,.123.024h0a.558.558,0,0,0,.37-1h0A.535.535,0,0,0,174.024,244.32Z" transform="translate(-170.3 -188.939)"/><circle class="c" cx="1.816" cy="1.816" r="1.816" transform="translate(22.221 84.151)"/><circle class="c" cx="1.816" cy="1.816" r="1.816" transform="translate(256.511 98.68)"/><g class="d" transform="translate(174.479)"><rect class="e" width="0.908" height="5.146" transform="translate(2.119)"/><rect class="e" width="0.908" height="5.146" transform="translate(5.146 2.119) rotate(90)"/></g><g class="d" transform="translate(212.62 119.869)"><rect class="e" width="0.908" height="5.146" transform="translate(2.119)"/><rect class="e" width="0.908" height="5.146" transform="translate(5.146 2.119) rotate(90)"/></g><path class="c" d="M793.734,117.776l1.95,1.788,2.763-4.063.975.813-3.738,4.876-2.763-3.088Z" transform="translate(-552.901 -80.538)"/></g><g transform="translate(94 93.549)"><path class="f" d="M541.9,387.837h-.05L513,400.155l-39.47,16.854a1.273,1.273,0,0,1-.975.005L431.839,400.12l-29.557-12.263-.045-.02h-.05a1.761,1.761,0,0,0-1.759,1.759v76.392a1.761,1.761,0,0,0,1.759,1.759H541.9a1.761,1.761,0,0,0,1.759-1.759V389.6A1.761,1.761,0,0,0,541.9,387.837Z" transform="translate(-357.493 -339.169)"/><path class="g" d="M546.9,243.333a.251.251,0,0,1-.143-.045l-69.5-48.4a1.26,1.26,0,0,0-1.44,0l-69,48.4a.251.251,0,1,1-.289-.412l69-48.4a1.765,1.765,0,0,1,2.015,0l69.5,48.4a.251.251,0,0,1-.144.458Z" transform="translate(-361.986 -194.163)"/><path class="h" d="M194.121,57.115l65.84-48.8L326.3,60.587,263.354,97.9l-34.175-7.79Z" transform="translate(-145.34 -6.229)"/><path class="i" d="M473.243,641.648H440.716a1.52,1.52,0,1,1,0-3.039h32.527a1.52,1.52,0,1,1,0,3.039Z" transform="translate(-386.52 -526.925)"/><path class="i" d="M452.386,615.648h-11.67a1.52,1.52,0,1,1,0-3.039h11.67a1.52,1.52,0,1,1,0,3.039Z" transform="translate(-386.52 -507.459)"/><path class="f" d="M566.256,291.825a1.9,1.9,0,0,1-.721-.141l-40.606-16.849V222.1a1.761,1.761,0,0,1,1.759-1.759h77.9a1.761,1.761,0,0,1,1.759,1.759v52.776l-.076.033L567,291.675A1.914,1.914,0,0,1,566.256,291.825Z" transform="translate(-450.709 -213.76)"/><path class="g" d="M565.882,291.576a2.028,2.028,0,0,1-.769-.15l-40.684-16.881V221.722a1.887,1.887,0,0,1,1.885-1.885h77.9a1.887,1.887,0,0,1,1.885,1.885V274.58l-39.424,16.836A2.038,2.038,0,0,1,565.882,291.576Zm-40.95-17.367L565.3,290.961a1.537,1.537,0,0,0,1.173-.007L605.6,274.249V221.722a1.384,1.384,0,0,0-1.382-1.382h-77.9a1.384,1.384,0,0,0-1.382,1.382Z" transform="translate(-450.334 -213.386)"/><path class="g" d="M541.9,387.837h-.05L513,400.155l-39.47,16.854a1.273,1.273,0,0,1-.975.005L431.839,400.12l-29.557-12.263-.045-.02h-.05a1.761,1.761,0,0,0-1.759,1.759v76.392a1.761,1.761,0,0,0,1.759,1.759H541.9a1.761,1.761,0,0,0,1.759-1.759V389.6A1.761,1.761,0,0,0,541.9,387.837Zm1.256,78.151a1.257,1.257,0,0,1-1.256,1.256H402.187a1.257,1.257,0,0,1-1.256-1.256V389.6a1.259,1.259,0,0,1,1.209-1.256l29.7,12.323,40.528,16.816a1.789,1.789,0,0,0,1.367-.008L513,400.7l28.948-12.361a1.261,1.261,0,0,1,1.206,1.256Z" transform="translate(-357.493 -339.169)"/><path class="i" d="M575.884,286.81H548.242a2.01,2.01,0,1,1,0-4.021h27.642a2.01,2.01,0,1,1,0,4.021Z" transform="translate(-466.659 -260.519)"/><path class="i" d="M561.561,252.81H548.242a2.01,2.01,0,1,1,0-4.021h13.318a2.01,2.01,0,1,1,0,4.021Z" transform="translate(-466.659 -235.062)"/><path class="j" d="M637.427,366.81H595.21a2.01,2.01,0,1,1,0-4.021h42.216a2.01,2.01,0,0,1,0,4.021Z" transform="translate(-501.824 -320.415)"/><path class="j" d="M637.427,403.81H595.21a2.01,2.01,0,1,1,0-4.021h42.216a2.01,2.01,0,1,1,0,4.021Z" transform="translate(-501.824 -348.118)"/><path class="k" d="M263.947,375.7a1.133,1.133,0,0,1-1.108-.909l-.914-4.558a9.3,9.3,0,0,1,18.232-3.657l.914,4.558a1.132,1.132,0,0,1-.886,1.331l-16.015,3.212a1.134,1.134,0,0,1-.223.022Z" transform="translate(-253.656 -317.655)"/><path class="l" d="M141.459,468.043h-2.873l-1.366-11.081h4.24Z" transform="translate(-102.738 -342.133)"/><path class="k" d="M124.1,497.791h5.54v3.488h-9.029a3.488,3.488,0,0,1,3.488-3.488Z" transform="translate(-90.3 -372.702)"/><path class="l" d="M27.087,465.617l-2.645-1.12L27.5,453.76l3.9,1.654Z" transform="translate(-18.3 -339.736)"/><path class="k" d="M3.488,0h5.54V3.488H0A3.488,3.488,0,0,1,3.488,0Z" transform="matrix(0.921, 0.39, -0.39, 0.921, 1.361, 121.844)"/><circle class="l" cx="6.172" cy="6.172" r="6.172" transform="translate(11.475 44.556)"/><path class="m" d="M285.252,448.051l-.063-.206c-1.682-5.467-3.42-11.117-5.161-16.491l-.047-.145.107-.109c2.7-2.749,7.764-3.845,11.775-2.55,4.037,1.3,6.818,4.958,6.471,8.5a9.079,9.079,0,0,0,1.615,6l.161.234-.252.132a45.7,45.7,0,0,1-14.393,4.6Z" transform="translate(-267.313 -369.247)"/><path class="k" d="M257.657,536.177a1.253,1.253,0,0,1-.627-.169l-3.334-1.925a1.25,1.25,0,0,1-.51-1.62l7.408-17.578,5.662-25.637,10.318-3.752.094.043c11.062,5.081,10.207,41.5,9.923,48.754a1.258,1.258,0,0,1-1.145,1.2l-3.1.405a1.268,1.268,0,0,1-1.359-1.04L274.65,506.55a.252.252,0,0,0-.207-.218.245.245,0,0,0-.262.124l-15.426,29.078a1.251,1.251,0,0,1-.766.6A1.271,1.271,0,0,1,257.657,536.177Z" transform="translate(-247.162 -412.287)"/><path class="l" d="M273.176,555.291a2.356,2.356,0,0,0-.973-3.48l.169-5.382-3.246-.9-.132,7.6a2.369,2.369,0,0,0,4.181,2.158Z" transform="translate(-258.975 -457.235)"/><path class="n" d="M263.028,470.331h-.19a1.249,1.249,0,0,1-1.237-1.158c-.311-4.008-1.267-17.662-.5-25.065a5.218,5.218,0,0,1,6.077-4.375l.2.044v.2c-.071,9.74-.066,19.422-.062,28.786a1.256,1.256,0,0,1-.981,1.229A16.209,16.209,0,0,1,263.028,470.331Z" transform="translate(-252.96 -377.964)"/><path class="n" d="M276.333,475.952a3.413,3.413,0,0,1-3.373-3l.273-22.478-4.468-11.3a6.635,6.635,0,0,1,4.268-7.052l1.194-.448a1.831,1.831,0,0,1,2.36,1.078l4.607,12.438v.018c.319,4.95,1.761,29.589-1.113,30.324a15.86,15.86,0,0,1-3.716.418Z" transform="translate(-258.877 -371.904)"/><path class="l" d="M392.088,519.689a2.356,2.356,0,0,1-1.108-3.439l-3.11-4.4,2.211-2.541,4.3,6.27a2.369,2.369,0,0,1-2.3,4.107Z" transform="translate(-348.091 -430.12)"/><path class="n" d="M342.4,451.261a1.015,1.015,0,0,1-.816-.454l-.016-.025c-5.145-7.788-10.465-15.84-15.858-23.867l-.058-.087.074-.073a4.8,4.8,0,0,1,3.539-1.283,4.729,4.729,0,0,1,3.495,1.639c4.712,5.733,11.437,17.633,13.386,21.143a1,1,0,0,1-.31,1.315,15.934,15.934,0,0,1-3.057,1.626A.962.962,0,0,1,342.4,451.261Z" transform="translate(-301.507 -367.341)"/><path class="n" d="M329.566,466.032c-3.082,0-14.108-21.229-16.287-25.486l-.019-.052-2.411-13.024a1.83,1.83,0,0,1,1.474-2.134l1.255-.227a6.635,6.635,0,0,1,7.277,3.872l3.15,13.24,10.532,17.895a3.415,3.415,0,0,1-1.376,4.345,15.849,15.849,0,0,1-3.406,1.545A.671.671,0,0,1,329.566,466.032Z" transform="translate(-290.402 -366.993)"/><path class="k" d="M281.81,373.037H269.371v-1.508a6.289,6.289,0,0,1,6.282-6.282h1.005a6.289,6.289,0,0,1,6.282,6.282v.377a1.132,1.132,0,0,1-1.131,1.131Z" transform="translate(-259.37 -322.256)"/></g></g></svg>