<svg xmlns="http://www.w3.org/2000/svg" width="11.507" height="10.114" viewBox="0 0 11.507 10.114"><defs><style>.a{fill:#7e7e7e;}</style></defs><path class="a" d="M211,240h2.023v.674H211Zm0,0" transform="translate(-206.258 -234.606)"/><path class="a" d="M9.336,81.739h-1.9v.337a.337.337,0,0,1-.337.337h-2.7a.337.337,0,0,1-.337-.337v-.337h-1.9a1.01,1.01,0,0,1-.959-.691L0,77.41v7.362a1.013,1.013,0,0,0,1.011,1.011H10.5a1.013,1.013,0,0,0,1.011-1.011V77.411l-1.212,3.637A1.01,1.01,0,0,1,9.336,81.739Zm0,0" transform="translate(0 -75.671)"/><path class="a" d="M32.331,0h-2.7a1.013,1.013,0,0,0-1.011,1.011v.337H25.809L27.08,5.163a.337.337,0,0,0,.32.23h1.9V5.057a.337.337,0,0,1,.337-.337h2.7a.337.337,0,0,1,.337.337v.337h1.9a.337.337,0,0,0,.32-.23l1.272-3.815H33.342V1.011A1.013,1.013,0,0,0,32.331,0ZM29.3,1.348V1.011a.337.337,0,0,1,.337-.337h2.7a.337.337,0,0,1,.337.337v.337Zm0,0" transform="translate(-25.229)"/></svg>