<svg xmlns="http://www.w3.org/2000/svg" width="42" height="42" viewBox="0 0 42 42"><defs><style>.a{fill:#131313;}.b{fill:none;}.c{fill:#fff;}</style></defs><g transform="translate(-32 -590)"><circle class="a" cx="21" cy="21" r="21" transform="translate(32 590)"/><g transform="translate(41 599)"><path class="b" d="M0,0H23.352V23.352H0Z"/><path class="c" d="M13.793,3.946l1.781,1.946h3.941V17.568H3.946V5.892H7.887L9.667,3.946h4.125M14.649,2H8.811L7.03,3.946H3.946A1.952,1.952,0,0,0,2,5.892V17.568a1.952,1.952,0,0,0,1.946,1.946H19.514a1.952,1.952,0,0,0,1.946-1.946V5.892a1.952,1.952,0,0,0-1.946-1.946H16.429ZM11.73,8.811A2.919,2.919,0,1,1,8.811,11.73,2.928,2.928,0,0,1,11.73,8.811m0-1.946a4.865,4.865,0,1,0,4.865,4.865A4.867,4.867,0,0,0,11.73,6.865Z" transform="translate(-0.054 -0.054)"/></g></g></svg>