<svg xmlns="http://www.w3.org/2000/svg" width="17.453" height="17.453" viewBox="0 0 17.453 17.453"><defs><style>.a{fill:#131313;}</style></defs><g transform="translate(0)"><g transform="translate(0)"><path class="a" d="M12.53,8.757A8.87,8.87,0,0,0,11.5,8.346a4.636,4.636,0,1,0-5.551,0A8.867,8.867,0,0,0,.045,14.955a2.071,2.071,0,0,0,2.025,2.5h8.4a.682.682,0,1,0,0-1.364h-8.4a.693.693,0,0,1-.545-.259.712.712,0,0,1-.144-.6A7.532,7.532,0,0,1,8.546,9.268q.09,0,.181,0t.183,0a7.426,7.426,0,0,1,3.035.721.682.682,0,0,0,.585-1.231ZM8.893,7.9l-.166,0-.165,0a3.272,3.272,0,1,1,.331,0Z" transform="translate(0)"/></g><g transform="translate(10.977 10.976)"><path class="a" d="M327.795,324.557H325.92v-1.875a.682.682,0,1,0-1.364,0v1.875h-1.875a.682.682,0,1,0,0,1.364h1.875v1.875a.682.682,0,0,0,1.364,0V325.92h1.875a.682.682,0,0,0,0-1.364Z" transform="translate(-322 -322)"/></g></g></svg>