<svg xmlns="http://www.w3.org/2000/svg" width="42" height="42" viewBox="0 0 42 42"><defs><style>.a{fill:#131313;}.b{fill:none;}.c{fill:#fff;}</style></defs><g transform="translate(-32 -590)"><circle class="a" cx="21" cy="21" r="21" transform="translate(32 590)"/><g transform="translate(41 599)"><path class="b" d="M0,0H23.039V23.039H0Z"/><path class="c" d="M19.279,3.92v11.52H7.76V3.92h11.52m0-1.92H7.76A1.926,1.926,0,0,0,5.84,3.92v11.52a1.926,1.926,0,0,0,1.92,1.92h11.52a1.926,1.926,0,0,0,1.92-1.92V3.92A1.926,1.926,0,0,0,19.279,2Zm-8.16,9.283,1.622,2.17,2.381-2.976,3.2,4H8.72ZM2,5.84V19.279A1.926,1.926,0,0,0,3.92,21.2H17.359v-1.92H3.92V5.84Z" transform="translate(-0.08 -0.08)"/></g></g></svg>