<svg xmlns="http://www.w3.org/2000/svg" width="512.001" height="512.001" viewBox="0 0 512.001 512.001">
  <path id="_021-plus" data-name="021-plus" d="M236,356V276H155a20,20,0,0,1,0-40h81V155a20,20,0,0,1,40,0v81h80a20,20,0,0,1,0,40H276v80a20,20,0,0,1-40,0ZM437.02,74.98A256,256,0,0,0,74.98,437.02a256.095,256.095,0,0,0,313.481,38.086A20,20,0,1,0,367.738,440.9,215.624,215.624,0,0,1,256,472C136.9,472,40,375.1,40,256S136.9,40,256,40s216,96.9,216,216a215.145,215.145,0,0,1-36.625,119.887,20,20,0,1,0,33.254,22.23A255.377,255.377,0,0,0,437.02,74.981Zm0,0" transform="translate(0 0)" fill="#fff"/>
</svg>
