<svg xmlns="http://www.w3.org/2000/svg" fill='#000000' width="19.145" height="19.145" viewBox="0 0 19.145 19.145"><g transform="translate(0 0)"><path d="M18.877,1.7,17.554.393a.949.949,0,0,0-1.323,0l-6.6,6.6L2.914.269a.948.948,0,0,0-1.323,0L.269,1.591a.948.948,0,0,0,0,1.323L6.975,9.62.393,16.232a.949.949,0,0,0,0,1.323l1.323,1.323a.949.949,0,0,0,1.323,0l6.6-6.6,6.6,6.6a.949.949,0,0,0,1.323,0l1.323-1.323a.949.949,0,0,0,0-1.323l-6.613-6.6,6.6-6.6A.954.954,0,0,0,18.877,1.7Z" transform="translate(0 0)"/></g></svg>