<svg xmlns="http://www.w3.org/2000/svg" width="17.549" height="19.605" viewBox="0 0 17.549 19.605"><defs><style>.a{fill:#7e7e7e;}</style></defs><g transform="translate(3.686 0)"><path class="a" d="M115.881,0a5.09,5.09,0,1,0,5.09,5.09A5.1,5.1,0,0,0,115.881,0Z" transform="translate(-110.791)"/></g><g transform="translate(0 10.545)"><g transform="translate(0)"><path class="a" d="M41.676,251.544a4.746,4.746,0,0,0-.511-.934,6.327,6.327,0,0,0-4.379-2.756.937.937,0,0,0-.645.156,5.426,5.426,0,0,1-6.4,0,.834.834,0,0,0-.645-.156,6.281,6.281,0,0,0-4.379,2.756,5.471,5.471,0,0,0-.511.934.473.473,0,0,0,.022.422,8.872,8.872,0,0,0,.6.889,8.446,8.446,0,0,0,1.023,1.156,13.316,13.316,0,0,0,1.023.889,10.136,10.136,0,0,0,12.092,0,9.773,9.773,0,0,0,1.023-.889,10.261,10.261,0,0,0,1.023-1.156,7.794,7.794,0,0,0,.6-.889A.379.379,0,0,0,41.676,251.544Z" transform="translate(-24.165 -247.841)"/></g></g></svg>