<svg xmlns="http://www.w3.org/2000/svg" width="18.198" height="18.198" viewBox="0 0 18.198 18.198">
  <g id="settings" transform="translate(0.25 0.25)">
    <g id="Group_2753" data-name="Group 2753" transform="translate(0 0)">
      <path id="Path_576" data-name="Path 576" d="M9.675,17.7H8.023a1.1,1.1,0,0,1-1.1-.973l-.176-1.383a6.969,6.969,0,0,1-1.013-.42l-1.1.856a1.1,1.1,0,0,1-1.464-.093L2.011,14.523a1.1,1.1,0,0,1-.09-1.459l.856-1.1a6.808,6.808,0,0,1-.42-1.013L.971,10.772A1.107,1.107,0,0,1,0,9.675V8.023a1.1,1.1,0,0,1,.973-1.1l1.383-.176a6.968,6.968,0,0,1,.42-1.013l-.855-1.1a1.1,1.1,0,0,1,.094-1.464L3.176,2.01a1.1,1.1,0,0,1,1.459-.09l1.1.857a6.943,6.943,0,0,1,1.014-.42L6.927.971A1.1,1.1,0,0,1,8.023,0H9.675a1.1,1.1,0,0,1,1.1.973l.176,1.383a6.944,6.944,0,0,1,1.014.42l1.1-.856a1.1,1.1,0,0,1,1.464.094l1.161,1.161a1.1,1.1,0,0,1,.09,1.459l-.856,1.1a6.808,6.808,0,0,1,.42,1.013l1.386.176a1.106,1.106,0,0,1,.97,1.1V9.675a1.1,1.1,0,0,1-.973,1.1l-1.383.176a6.969,6.969,0,0,1-.42,1.013l.856,1.1a1.1,1.1,0,0,1-.094,1.464l-1.161,1.161a1.1,1.1,0,0,1-1.459.09l-1.1-.856a6.808,6.808,0,0,1-1.013.42l-.176,1.386a1.106,1.106,0,0,1-1.1.971ZM5.7,14.114a.374.374,0,0,1,.18.046,6.189,6.189,0,0,0,1.308.543.368.368,0,0,1,.264.307l.206,1.622a.373.373,0,0,0,.364.327H9.675a.371.371,0,0,0,.364-.324l.207-1.625a.368.368,0,0,1,.264-.307,6.189,6.189,0,0,0,1.308-.543.368.368,0,0,1,.406.031l1.29,1A.363.363,0,0,0,14,15.17L15.165,14a.365.365,0,0,0,.029-.487l-1-1.29a.368.368,0,0,1-.031-.406A6.189,6.189,0,0,0,14.7,10.51a.368.368,0,0,1,.307-.264l1.622-.206a.374.374,0,0,0,.327-.365V8.023a.371.371,0,0,0-.324-.364l-1.625-.207a.368.368,0,0,1-.307-.264,6.189,6.189,0,0,0-.543-1.308.367.367,0,0,1,.031-.406l1-1.29a.362.362,0,0,0-.024-.482L14,2.533a.363.363,0,0,0-.487-.029l-1.29,1a.369.369,0,0,1-.406.031A6.164,6.164,0,0,0,10.51,3a.368.368,0,0,1-.264-.307L10.04,1.066A.374.374,0,0,0,9.675.737H8.023a.371.371,0,0,0-.364.324L7.452,2.686a.37.37,0,0,1-.264.308,6.162,6.162,0,0,0-1.308.542.369.369,0,0,1-.406-.03l-1.29-1a.362.362,0,0,0-.482.024L2.532,3.7a.365.365,0,0,0-.029.487l1,1.29a.368.368,0,0,1,.031.406,6.151,6.151,0,0,0-.543,1.308.368.368,0,0,1-.307.264l-1.622.206a.373.373,0,0,0-.327.364V9.675a.371.371,0,0,0,.324.364l1.625.207a.368.368,0,0,1,.307.264,6.189,6.189,0,0,0,.543,1.308.367.367,0,0,1-.031.406l-1,1.29A.362.362,0,0,0,2.527,14L3.7,15.165a.364.364,0,0,0,.487.029l1.29-1a.38.38,0,0,1,.227-.077Z" transform="translate(0 0)" fill="#131313" stroke="#131313" stroke-width="0.5"/>
    </g>
    <g id="Group_2754" data-name="Group 2754" transform="translate(5.162 5.162)">
      <path id="Path_577" data-name="Path 577" d="M10.687,14.374a3.687,3.687,0,1,1,3.687-3.687A3.691,3.691,0,0,1,10.687,14.374Zm0-6.637a2.95,2.95,0,1,0,2.95,2.95A2.953,2.953,0,0,0,10.687,7.737Z" transform="translate(-7 -7)" fill="#131313" stroke="#131313" stroke-width="0.5"/>
    </g>
  </g>
</svg>
