<svg xmlns="http://www.w3.org/2000/svg" width="21.374" height="17.992" viewBox="0 0 21.374 17.992"><defs><style>.a{fill:#7e7e7e;}</style></defs><path class="a" d="M112.6,138.59H100.848a.626.626,0,1,0,0,1.252H112.6a.626.626,0,1,0,0-1.252Zm0,0" transform="translate(-96.038 -132.805)"/><path class="a" d="M112.6,210.355H100.848a.626.626,0,1,0,0,1.252H112.6a.626.626,0,1,0,0-1.252Zm0,0" transform="translate(-96.038 -201.574)"/><path class="a" d="M16.99,0H4.383A4.388,4.388,0,0,0,0,4.383v7.053a4.388,4.388,0,0,0,4.383,4.383h.65l1.525,1.934a.626.626,0,0,0,.984,0l1.525-1.934H16.99a4.388,4.388,0,0,0,4.383-4.383V4.383A4.388,4.388,0,0,0,16.99,0Zm3.131,11.436a3.134,3.134,0,0,1-3.131,3.131H8.763a.626.626,0,0,0-.492.239L7.05,16.354,5.829,14.805a.626.626,0,0,0-.492-.239H4.383a3.134,3.134,0,0,1-3.131-3.131V4.383A3.134,3.134,0,0,1,4.383,1.252H16.99a3.134,3.134,0,0,1,3.131,3.131Zm0,0"/></svg>