<svg xmlns="http://www.w3.org/2000/svg" width="21.373" height="17.992" viewBox="0 0 21.373 17.992"><defs><style>.a{fill:#7e7e7e;}</style></defs><g transform="translate(6.821 4.513)"><path class="a" d="M107.183,138.59h-6.609c-.194,0-.352.28-.352.626s.158.626.352.626h6.609c.194,0,.352-.28.352-.626S107.377,138.59,107.183,138.59Zm0,0" transform="translate(-100.222 -135.559)"/><path class="a" d="M6.961,0H.352C.158,0,0,.28,0,.626s.158.626.352.626H6.961c.194,0,.352-.28.352-.626S7.155,0,6.961,0Zm0,0" transform="translate(4.283) rotate(90)"/></g><path class="a" d="M16.99,0H4.383A4.388,4.388,0,0,0,0,4.383v7.053a4.388,4.388,0,0,0,4.383,4.383h.65l1.524,1.934a.626.626,0,0,0,.984,0l1.524-1.934H16.99a4.388,4.388,0,0,0,4.383-4.383V4.383A4.388,4.388,0,0,0,16.99,0Zm3.131,11.436a3.134,3.134,0,0,1-3.131,3.131H8.762a.626.626,0,0,0-.492.239L7.05,16.354,5.829,14.805a.626.626,0,0,0-.492-.239H4.383a3.134,3.134,0,0,1-3.131-3.131V4.383A3.134,3.134,0,0,1,4.383,1.252H16.99a3.134,3.134,0,0,1,3.131,3.131Zm0,0"/></svg>