<svg xmlns="http://www.w3.org/2000/svg" width="15.051" height="18.746" viewBox="0 0 15.051 18.746"><defs><style>.a{fill:#131313;}</style></defs><g transform="translate(-57.128 43.068)"><path class="a" d="M54.621,3.036,47.793.056a.666.666,0,0,0-.534,0L40.43,3.036a.734.734,0,0,0-.43.676V7.334a12.281,12.281,0,0,0,7.262,11.358.666.666,0,0,0,.527,0A12.281,12.281,0,0,0,55.051,7.334V3.712A.734.734,0,0,0,54.621,3.036Zm-.964,4.3a10.837,10.837,0,0,1-6.132,9.885,10.835,10.835,0,0,1-6.132-9.885V4.2l6.132-2.676L53.657,4.2ZM46.755,9.8,49.75,6.655a.673.673,0,0,1,.985,0,.759.759,0,0,1,0,1.036l-3.488,3.665a.673.673,0,0,1-.985,0L44.315,9.309a.759.759,0,0,1,0-1.036.673.673,0,0,1,.985,0Z" transform="translate(17.128 -43.068)"/></g></svg>