<svg xmlns="http://www.w3.org/2000/svg" width="27" height="27" viewBox="0 0 27 27"><defs><style>.a{fill:#131313;}.b{fill:#fff;}.c,.d{stroke:none;}.d{fill:#131313;}</style></defs><g transform="translate(-206 -203)"><g class="a" transform="translate(206 203)"><path class="c" d="M 13.5 26.5 C 10.02758026123047 26.5 6.76298999786377 25.14776039123535 4.307610034942627 22.69239044189453 C 1.852239966392517 20.23700904846191 0.5 16.97241973876953 0.5 13.5 C 0.5 10.02758026123047 1.852239966392517 6.76298999786377 4.307610034942627 4.307610034942627 C 6.76298999786377 1.852239966392517 10.02758026123047 0.5 13.5 0.5 C 16.97241973876953 0.5 20.23700904846191 1.852239966392517 22.69239044189453 4.307610034942627 C 25.14776039123535 6.76298999786377 26.5 10.02758026123047 26.5 13.5 C 26.5 16.97241973876953 25.14776039123535 20.23700904846191 22.69239044189453 22.69239044189453 C 20.23700904846191 25.14776039123535 16.97241973876953 26.5 13.5 26.5 Z"/><path class="d" d="M 13.5 1 C 10.16113090515137 1 7.022109985351563 2.300230026245117 4.661169052124023 4.661169052124023 C 2.300230026245117 7.022109985351563 1 10.16113090515137 1 13.5 C 1 16.83887100219727 2.300230026245117 19.97789001464844 4.661169052124023 22.33882904052734 C 7.022109985351563 24.69976997375488 10.16113090515137 26 13.5 26 C 16.83887100219727 26 19.97789001464844 24.69976997375488 22.33882904052734 22.33882904052734 C 24.69976997375488 19.97789001464844 26 16.83887100219727 26 13.5 C 26 10.16113090515137 24.69976997375488 7.022109985351563 22.33882904052734 4.661169052124023 C 19.97789001464844 2.300230026245117 16.83887100219727 1 13.5 1 M 13.5 0 C 20.95584106445313 0 27 6.044160842895508 27 13.5 C 27 20.95584106445313 20.95584106445313 27 13.5 27 C 6.044160842895508 27 0 20.95584106445313 0 13.5 C 0 6.044160842895508 6.044160842895508 0 13.5 0 Z"/></g><g transform="translate(213 207.64)"><path class="b" d="M8.94,9.776A2.18,2.18,0,1,1,6.76,7.6,2.183,2.183,0,0,1,8.94,9.776Zm4.579-3.1v6.193a1.5,1.5,0,0,1-1.495,1.495H1.495A1.5,1.5,0,0,1,0,12.873V6.68A1.5,1.5,0,0,1,1.495,5.185H3.334V4.668A1.308,1.308,0,0,1,4.642,3.36H8.877a1.308,1.308,0,0,1,1.308,1.308v.517h1.839A1.5,1.5,0,0,1,13.519,6.68Zm-3.458,3.1a3.3,3.3,0,1,0-3.3,3.3A3.305,3.305,0,0,0,10.061,9.776Z"/></g></g></svg>

