<svg xmlns="http://www.w3.org/2000/svg" width="16.14" height="14.747" viewBox="0 0 16.14 14.747"><defs><style>.a{fill:#131313;}</style></defs><g transform="translate(0 -22.098)"><g transform="translate(3.465 22.098)"><g transform="translate(0 0)"><path class="a" d="M121.7,23a2.827,2.827,0,0,0-2.029-.9h-.035a2.886,2.886,0,0,0-1.963.85l-.005.005-7.21,7.33a1.734,1.734,0,0,0,0,2.516,1.768,1.768,0,0,0,1.256.548h0a1.779,1.779,0,0,0,1.267-.55l4.983-5.091a.63.63,0,0,0-.9-.882l-4.981,5.089a.53.53,0,0,1-.368.174.509.509,0,0,1-.36-.174.486.486,0,0,1,0-.745l7.2-7.321a1.5,1.5,0,0,1,2.248.035,1.58,1.58,0,0,1,.012,2.34.63.63,0,1,0,.9.887A2.829,2.829,0,0,0,121.7,23Z" transform="translate(-109.916 -22.098)"/></g></g><g transform="translate(0 23.422)"><g transform="translate(0 0)"><path class="a" d="M13.268,68.926a.63.63,0,0,0-.891.014L6.156,75.365a2.832,2.832,0,0,1-2.007.882h0a2.8,2.8,0,0,1-2-.9,2.687,2.687,0,0,1,0-3.979l6.211-6.21a.63.63,0,1,0-.891-.891L1.251,70.48l0,0A4.145,4.145,0,0,0,0,73.278a4.017,4.017,0,0,0,1.247,2.958,4.088,4.088,0,0,0,2.9,1.272h0a4.083,4.083,0,0,0,2.905-1.259l6.228-6.432A.63.63,0,0,0,13.268,68.926Z" transform="translate(0 -64.085)"/></g></g></g></svg>