<svg xmlns="http://www.w3.org/2000/svg" width="20" height="20.955" viewBox="0 0 20 20.955"><defs><style>.a{fill:#131313;}</style></defs><g transform="translate(0.043 -2.993)"><g transform="translate(0 0)"><path class="a" d="M137.074,420.49a3.747,3.747,0,0,1-3.742-3.742.748.748,0,0,1,1.5,0,2.245,2.245,0,1,0,4.49,0,.748.748,0,0,1,1.5,0A3.746,3.746,0,0,1,137.074,420.49Zm0,0" transform="translate(-127.096 -396.542)"/><path class="a" d="M18.211,81.961H1.746A1.747,1.747,0,0,1,.611,78.888a.69.69,0,0,1,.08-.06,6.706,6.706,0,0,0,2.3-5.059V70.985A6.993,6.993,0,0,1,9.978,64a3.008,3.008,0,0,1,.492.03.748.748,0,1,1-.246,1.476,1.569,1.569,0,0,0-.246-.009A5.5,5.5,0,0,0,4.49,70.985v2.784a8.207,8.207,0,0,1-2.9,6.257c-.015.012-.028.023-.044.034a.247.247,0,0,0-.053.155.252.252,0,0,0,.249.249H18.211a.252.252,0,0,0,.25-.249.238.238,0,0,0-.054-.155l-.043-.034a8.2,8.2,0,0,1-2.9-6.257V72.682a.748.748,0,0,1,1.5,0v1.087a6.709,6.709,0,0,0,2.306,5.062.73.73,0,0,1,.077.058,1.746,1.746,0,0,1-1.136,3.072Zm0,0" transform="translate(0 -61.007)"/><path class="a" d="M1.746,81.961H18.211a1.747,1.747,0,0,0,1.136-3.073.69.69,0,0,0-.08-.06,6.706,6.706,0,0,1-2.3-5.059V70.985A6.993,6.993,0,0,0,9.979,64a3.008,3.008,0,0,0-.492.03.748.748,0,1,0,.246,1.476,1.569,1.569,0,0,1,.246-.009,5.5,5.5,0,0,1,5.488,5.488v2.784a8.207,8.207,0,0,0,2.9,6.257c.015.012.028.023.044.034a.247.247,0,0,1,.053.155.252.252,0,0,1-.249.249H1.746a.252.252,0,0,1-.25-.249.238.238,0,0,1,.054-.155l.043-.034a8.2,8.2,0,0,0,2.9-6.257V72.682a.748.748,0,0,0-1.5,0v1.087A6.709,6.709,0,0,1,.688,78.831a.73.73,0,0,0-.077.058,1.746,1.746,0,0,0,1.136,3.072Zm0,0" transform="translate(-0.043 -61.007)"/></g></g></svg>