<svg xmlns="http://www.w3.org/2000/svg" width="20.125" height="26.347" viewBox="0 0 20.125 26.347"><defs><style>.a{fill:#fe4242;}.b{fill:#fff;}</style></defs><g transform="translate(-1.445 -1.548)"><path class="a" d="M47.822,22.844a9.989,9.989,0,0,0-8.212,15.78c.028.028.028.056.056.056l.028.028L47.4,48.967a.506.506,0,0,0,.841,0l7.736-10.315a.06.06,0,0,0,.056-.056,9.968,9.968,0,0,0-8.212-15.752Zm0,13.958a4.292,4.292,0,1,1,4.457-4.288A4.381,4.381,0,0,1,47.822,36.8Z" transform="translate(-36.314 -21.296)"/><path class="b" d="M69.091,48.644a4.292,4.292,0,1,0,4.457,4.288A4.375,4.375,0,0,0,69.091,48.644Z" transform="translate(-57.584 -41.714)"/><path class="b" d="M65.9,54.765a5.146,5.146,0,1,1,5.3-5.157A5.223,5.223,0,0,1,65.9,54.765Zm0-8.6a3.465,3.465,0,1,0,3.616,3.476A3.538,3.538,0,0,0,65.9,46.16Z" transform="translate(-54.393 -38.417)"/></g></svg>