<svg xmlns="http://www.w3.org/2000/svg" width="23.328" height="23.328" viewBox="0 0 23.328 23.328"><defs><style>.a{fill:#131313;}</style></defs><path class="a" d="M17.038,13.783a3.224,3.224,0,0,0-1.255-.773L15.741,13l-4.335-.987.973,4.351.014.043a3.229,3.229,0,0,0,.777,1.262l6.289,6.122L23.328,19.9Zm2.4,7.442-4.986-4.853a1.372,1.372,0,0,1-.1-.108l1.287-1.287a1.372,1.372,0,0,1,.11.1l4.981,4.849ZM15.017,22l1.872,1.823H2.731A2.736,2.736,0,0,1,0,21.093V3.233A2.736,2.736,0,0,1,2.731.5H20.575a2.736,2.736,0,0,1,2.731,2.734V17.342L21.486,15.57V3.233a.912.912,0,0,0-.91-.911H2.731a.912.912,0,0,0-.91.911v17.86a.912.912,0,0,0,.91.911ZM18.754,6.559H4.552V4.736h14.2Zm0,3.645H4.552V8.381h14.2Zm-14.2,1.823h5.1v1.823h-5.1Zm0,0" transform="translate(0 -0.499)"/></svg>