<svg xmlns="http://www.w3.org/2000/svg" width="12.162" height="17.326" viewBox="0 0 12.162 17.326">
  <g id="id-card" transform="translate(-76)">
    <path id="Path_459" data-name="Path 459" d="M86.633,1.489h-2.5V.51a.51.51,0,0,0-.51-.51H80.535a.51.51,0,0,0-.51.51v.979h-2.5A1.53,1.53,0,0,0,76,3.018V15.8a1.53,1.53,0,0,0,1.529,1.529h9.1A1.53,1.53,0,0,0,88.162,15.8V3.018a1.53,1.53,0,0,0-1.529-1.529Zm-5.588-.47h2.072V2.9a1.036,1.036,0,0,1-2.072,0Zm6.1,14.778a.51.51,0,0,1-.51.51h-9.1a.51.51,0,0,1-.51-.51V3.018a.51.51,0,0,1,.51-.51h2.5v.4a2.055,2.055,0,1,0,4.111,0v-.4h2.5a.51.51,0,0,1,.51.51Z" fill="#131313"/>
    <path id="Path_460" data-name="Path 460" d="M178.8,188.469h4.193a.51.51,0,0,0,.51-.51v-1.335a2.122,2.122,0,0,0-1.112-1.865,1.845,1.845,0,1,0-2.988,0,2.122,2.122,0,0,0-1.112,1.865v1.335A.51.51,0,0,0,178.8,188.469Zm2.1-5.617a.826.826,0,1,1-.826.826A.827.827,0,0,1,180.894,182.852Zm-1.587,3.772a1.1,1.1,0,0,1,1.1-1.1h.972a1.1,1.1,0,0,1,1.1,1.1v.825h-3.174Z" transform="translate(-98.813 -175.656)" fill="#131313"/>
    <path id="Path_461" data-name="Path 461" d="M172.7,413H167.76a.51.51,0,1,0,0,1.019H172.7a.51.51,0,1,0,0-1.019Z" transform="translate(-88.15 -398.969)" fill="#131313"/>
  </g>
</svg>
