<svg xmlns="http://www.w3.org/2000/svg" width="17.996" height="16.169" viewBox="0 0 17.996 16.169">
  <g id="faq" transform="translate(-0.001)">
    <path id="Path_580" data-name="Path 580" d="M14.842,0H3.193A3.192,3.192,0,0,0,0,3.185V15.1a1.09,1.09,0,0,0,1.088,1.073,1.077,1.077,0,0,0,.725-.279A7.917,7.917,0,0,1,7.136,13.84h7.708A3.159,3.159,0,0,0,18,10.682V3.147A3.155,3.155,0,0,0,14.842,0Zm2.1,10.682a2.1,2.1,0,0,1-2.1,2.1H7.136A8.972,8.972,0,0,0,1.1,15.108a.032.032,0,0,1-.028,0,.049.049,0,0,1-.022-.02V3.185a2.136,2.136,0,0,1,2.137-2.13H14.842a2.1,2.1,0,0,1,2.1,2.093v7.535Zm0,0" transform="translate(0)" fill="#131313"/>
    <path id="Path_581" data-name="Path 581" d="M90.971,110.046h1.7a.527.527,0,1,0,0-1.054h-1.7a1.343,1.343,0,0,0-1.342,1.342v4.277a.527.527,0,0,0,1.054,0v-1.287h1.99a.527.527,0,0,0,0-1.054h-1.99v-1.936a.288.288,0,0,1,.287-.287Zm0,0" transform="translate(-86.478 -105.161)" fill="#131313"/>
    <path id="Path_582" data-name="Path 582" d="M207.165,108.992a1.788,1.788,0,0,0-1.786,1.786v3.833a.527.527,0,1,0,1.054,0V113.3H207.9v1.316a.527.527,0,1,0,1.054,0v-3.833A1.788,1.788,0,0,0,207.165,108.992Zm-.731,3.249v-1.463a.731.731,0,1,1,1.463,0v1.463Zm0,0" transform="translate(-198.16 -105.161)" fill="#131313"/>
    <path id="Path_583" data-name="Path 583" d="M330.614,114.084H330.2v-3.306a1.786,1.786,0,1,0-3.572,0v2.575a1.788,1.788,0,0,0,1.786,1.786h2.2a.527.527,0,1,0,0-1.054Zm-2.935-.731v-2.575a.731.731,0,1,1,1.462,0v3.306h-.731A.732.732,0,0,1,327.679,113.352Zm0,0" transform="translate(-315.144 -105.161)" fill="#131313"/>
  </g>
</svg>
