<svg xmlns="http://www.w3.org/2000/svg" width="20" height="22.756" viewBox="0 0 20 22.756"><defs><style>.a{fill:#131313;}</style></defs><g transform="translate(-31)"><g transform="translate(31)"><g transform="translate(0)"><path class="a" d="M44.8,15.035c2.421-3.8,2.117-3.326,2.187-3.425a7.279,7.279,0,0,0,1.348-4.232,7.333,7.333,0,1,0-13.28,4.286L37.2,15.035c-2.3.353-6.2,1.4-6.2,3.721,0,.844.551,2.047,3.176,2.985A21.042,21.042,0,0,0,41,22.756c4.8,0,10-1.354,10-4C51,16.439,47.1,15.389,44.8,15.035Zm-8.632-4.1-.023-.034A6,6,0,1,1,45.9,10.83c-.064.085.271-.436-4.9,7.685ZM41,21.422c-5.244,0-8.667-1.541-8.667-2.667,0-.756,1.759-2,5.655-2.484l2.449,3.843a.667.667,0,0,0,1.124,0l2.449-3.843c3.9.485,5.656,1.728,5.656,2.484C49.667,19.871,46.275,21.422,41,21.422Z" transform="translate(-31)"/></g></g><g transform="translate(37.667 4.044)"><path class="a" d="M184.333,91a3.333,3.333,0,1,0,3.333,3.333A3.337,3.337,0,0,0,184.333,91Zm0,5.333a2,2,0,1,1,2-2A2,2,0,0,1,184.333,96.333Z" transform="translate(-181 -91)"/></g></g></svg>