<svg xmlns="http://www.w3.org/2000/svg" width="23.624" height="23.624" viewBox="0 0 23.624 23.624"><defs><style>.a{fill:#131313;}</style></defs><g transform="translate(0 0)"><g transform="translate(0 12.796)"><path class="a" d="M20.917,19.89H16.8a.738.738,0,1,1,0-1.476h3.6l1.432-3.937H1.791l1.432,3.937h3.6a.738.738,0,1,1,0,1.476H2.707a.738.738,0,0,1-.694-.486L.044,13.99A.738.738,0,0,1,.738,13H22.885a.739.739,0,0,1,.694.991L21.611,19.4A.739.739,0,0,1,20.917,19.89Z" transform="translate(0 -13)"/></g><g transform="translate(5.906 15.749)"><path class="a" d="M16.09,23.875a.74.74,0,0,1-.73-.85l.853-5.548H7.6l.853,5.548a.738.738,0,0,1-1.459.224l-.984-6.4A.737.737,0,0,1,6.738,16H17.074a.739.739,0,0,1,.729.851l-.984,6.4a.737.737,0,0,1-.728.625Z" transform="translate(-6 -16)"/></g><g transform="translate(18.337 7.107)"><path class="a" d="M22.439,14.14A.739.739,0,0,1,21.7,13.4a5.674,5.674,0,0,0-2.718-4.812.738.738,0,0,1,.769-1.261A7.162,7.162,0,0,1,23.177,13.4.737.737,0,0,1,22.439,14.14Z" transform="translate(-18.629 -7.22)"/></g><g transform="translate(16.309 5.679)"><ellipse class="a" cx="1.84" cy="1.635" rx="1.84" ry="1.635" transform="translate(0 0)"/></g><g transform="translate(7.874)"><path class="a" d="M11.937,7.875a3.937,3.937,0,1,1,3.937-3.937A3.941,3.941,0,0,1,11.937,7.875Zm0-6.4A2.461,2.461,0,1,0,14.4,3.937,2.464,2.464,0,0,0,11.937,1.476Z" transform="translate(-8 0)"/></g><g transform="translate(3.691 8.859)"><path class="a" d="M19.253,14.414a.739.739,0,0,1-.738-.738,3.2,3.2,0,0,0-3.2-3.2H8.426a3.2,3.2,0,0,0-3.2,3.2.738.738,0,0,1-1.476,0A4.681,4.681,0,0,1,8.426,9h6.89a4.681,4.681,0,0,1,4.676,4.676A.739.739,0,0,1,19.253,14.414Z" transform="translate(-3.75 -9)"/></g></g></svg>