<svg xmlns="http://www.w3.org/2000/svg" xmlns:xlink="http://www.w3.org/1999/xlink" width="67.56" height="67.652" viewBox="0 0 67.56 67.652">
  <defs>
    <linearGradient id="linear-gradient" x1="0.085" y1="1.113" x2="1.067" y2="0.07" gradientUnits="objectBoundingBox">
      <stop offset="0" stop-color="#fff"/>
      <stop offset="1" stop-color="#e8efee"/>
    </linearGradient>
    <linearGradient id="linear-gradient-2" x1="0.936" y1="-8.083" x2="-0.054" y2="-9.223" gradientUnits="objectBoundingBox">
      <stop offset="0" stop-color="#c2cece" stop-opacity="0"/>
      <stop offset="0.179" stop-color="#afbcbc" stop-opacity="0.18"/>
      <stop offset="1" stop-color="#5b6a6a"/>
    </linearGradient>
    <linearGradient id="linear-gradient-3" x1="0.771" y1="0.781" x2="-0.083" y2="1.568" xlink:href="#linear-gradient-2"/>
    <linearGradient id="linear-gradient-4" x1="1.113" y1="0.307" x2="-0.093" y2="0.317" gradientUnits="objectBoundingBox">
      <stop offset="0" stop-color="#ffdc6b"/>
      <stop offset="0.268" stop-color="#ffcb3d"/>
      <stop offset="0.659" stop-color="#ffbf44"/>
      <stop offset="1" stop-color="#ffa32c"/>
    </linearGradient>
    <linearGradient id="linear-gradient-5" x1="0.5" y1="0.953" x2="0.5" y2="0.049" gradientUnits="objectBoundingBox">
      <stop offset="0" stop-color="#fccd38"/>
      <stop offset="0" stop-color="#f9c63d"/>
      <stop offset="0.188" stop-color="#fb0"/>
      <stop offset="0.659" stop-color="#feb731"/>
      <stop offset="1" stop-color="#fba83d"/>
    </linearGradient>
    <linearGradient id="linear-gradient-6" x1="0.133" y1="2.542" x2="0.522" y2="1.616" gradientUnits="objectBoundingBox">
      <stop offset="0" stop-color="#d63305"/>
      <stop offset="0.366" stop-color="#cf3004"/>
      <stop offset="0.899" stop-color="#bc2602"/>
      <stop offset="1" stop-color="#b72401"/>
    </linearGradient>
    <linearGradient id="linear-gradient-7" x1="0.223" y1="0.976" x2="-0.501" y2="1.746" xlink:href="#linear-gradient-2"/>
  </defs>
  <g id="email_1_" data-name="email (1)" transform="translate(-0.351)">
    <path id="Path_645" data-name="Path 645" d="M32.381,2.389.351,28.27v4.823h67.56V28.27L35.881,2.389A2.784,2.784,0,0,0,32.381,2.389Z" transform="translate(0 -1.537)" fill="#ff9102"/>
    <path id="Path_646" data-name="Path 646" d="M80.628,58.307H24.205a2.784,2.784,0,0,1-2.784-2.784V2.784A2.784,2.784,0,0,1,24.205,0H80.628a2.784,2.784,0,0,1,2.784,2.784V55.523A2.784,2.784,0,0,1,80.628,58.307Z" transform="translate(-18.286)" fill="url(#linear-gradient)"/>
    <path id="Path_647" data-name="Path 647" d="M83.413,408.463v1.084a3.252,3.252,0,0,1-3.251,3.251H24.673a3.252,3.252,0,0,1-3.251-3.251v-1.084Z" transform="translate(-18.287 -354.491)" fill="url(#linear-gradient-2)"/>
    <g id="Group_2891" data-name="Group 2891" transform="translate(16.22 8.816)">
      <rect id="Rectangle_1667" data-name="Rectangle 1667" width="35.822" height="2.042" fill="#c2cece"/>
      <rect id="Rectangle_1668" data-name="Rectangle 1668" width="35.822" height="2.042" transform="translate(0 8.166)" fill="#c2cece"/>
      <rect id="Rectangle_1669" data-name="Rectangle 1669" width="35.822" height="2.042" transform="translate(0 16.518)" fill="#c2cece"/>
      <rect id="Rectangle_1670" data-name="Rectangle 1670" width="35.822" height="2.042" transform="translate(0 24.871)" fill="#c2cece"/>
    </g>
    <path id="Path_648" data-name="Path 648" d="M372.233,182.656a11.367,11.367,0,0,1-7.3-2.641l-.773.136,16.7,16.7V178.707A11.385,11.385,0,0,1,372.233,182.656Z" transform="translate(-315.737 -155.094)" fill="url(#linear-gradient-3)"/>
    <path id="Path_649" data-name="Path 649" d="M67.911,202.791v38.073a2.785,2.785,0,0,1-2.784,2.784H3.135a2.785,2.785,0,0,1-2.784-2.784V202.791L34.5,229.728Z" transform="translate(0 -175.996)" fill="url(#linear-gradient-4)"/>
    <path id="Path_650" data-name="Path 650" d="M71.744,331.734,40.459,306.508a2.784,2.784,0,0,0-3.495,0L5.2,332.118a2.778,2.778,0,0,0,2.143,1.008H69.336A2.781,2.781,0,0,0,71.744,331.734Z" transform="translate(-4.209 -265.473)" fill="url(#linear-gradient-5)"/>
    <circle id="Ellipse_127" data-name="Ellipse 127" cx="11.415" cy="11.415" r="11.415" transform="translate(45.081 5.661)" fill="url(#linear-gradient-6)"/>
    <path id="Path_651" data-name="Path 651" d="M405.781,73.3a1.02,1.02,0,0,1,.449-.876l2.222-2.136a.784.784,0,0,1,.577-.235,1.24,1.24,0,0,1,.694.2.624.624,0,0,1,.31.545V84.942a.614.614,0,0,1-.342.545,1.661,1.661,0,0,1-1.592,0,.615.615,0,0,1-.331-.545V73.063l-.748.94a.653.653,0,0,1-.47.214.67.67,0,0,1-.545-.288A1,1,0,0,1,405.781,73.3Z" transform="translate(-351.859 -60.795)" fill="#fff"/>
    <path id="Path_652" data-name="Path 652" d="M22.289,56.391V3.652A2.784,2.784,0,0,1,25.073.868H81.5a2.767,2.767,0,0,1,1.484.432A2.779,2.779,0,0,0,80.628,0H24.205a2.784,2.784,0,0,0-2.784,2.784V55.523a2.78,2.78,0,0,0,1.3,2.352A2.768,2.768,0,0,1,22.289,56.391Z" transform="translate(-18.286)" fill="url(#linear-gradient-7)"/>
  </g>
</svg>
