<svg xmlns="http://www.w3.org/2000/svg" width="512.001" height="512.001" viewBox="0 0 512.001 512.001">
  <path id="_020-cancel" data-name="020-cancel" d="M357.141,181.141,283.785,254.5l73.355,73.359a20,20,0,1,1-28.281,28.281L255.5,282.786l-73.359,73.355A20,20,0,0,1,153.86,327.86L227.215,254.5,153.86,181.141a20,20,0,1,1,28.281-28.281L255.5,226.215,328.86,152.86a20,20,0,0,1,28.281,28.281ZM437.02,74.981A256,256,0,0,0,74.98,437.021a256.095,256.095,0,0,0,313.481,38.086A20,20,0,1,0,367.738,440.9,215.624,215.624,0,0,1,256,472C136.9,472,40,375.1,40,256S136.9,40,256,40s216,96.9,216,216a215.145,215.145,0,0,1-36.625,119.887,20,20,0,1,0,33.254,22.23A255.377,255.377,0,0,0,437.02,74.982Zm0,0" transform="translate(0.001 0)" fill="#fff"/>
</svg>
