<svg xmlns="http://www.w3.org/2000/svg" width="14.905" height="14.905" viewBox="0 0 14.905 14.905"><defs><style>.a{fill:#7e7e7e;}</style></defs><path class="a" d="M7.453,0a7.453,7.453,0,1,0,7.453,7.453A7.461,7.461,0,0,0,7.453,0Zm.485,11.875c-.354.059-1.059.206-1.416.236a.872.872,0,0,1-.763-.4.931.931,0,0,1-.113-.853L7.054,6.987H5.589A1.751,1.751,0,0,1,6.968,5.358a5.393,5.393,0,0,1,1.416-.235,1.123,1.123,0,0,1,.763.4.931.931,0,0,1,.113.853L7.851,10.247H9.315a1.649,1.649,0,0,1-1.378,1.627Zm.447-7.217a.932.932,0,1,1,.932-.932.932.932,0,0,1-.932.932Z"/></svg>