<?xml version="1.0" encoding="UTF-8"?>
<svg id="Layer_2" data-name="Layer 2" xmlns="http://www.w3.org/2000/svg" viewBox="0 0 144.31 28.35" fill="#000000" height="22.3932" width="114">
  <g id="Layer_2-2" data-name="Layer 2">
    <g id="Layer_1-2" data-name="Layer 1-2">
      <g>
        <path d="M23.79,19.07c.25,.13,2.3,1.64,2.67,1.96-.03,.06-.05,.14-.09,.21-1.95,3.51-4.86,5.77-8.77,6.71-1.47,.36-2.98,.46-4.49,.37-1.08-.06-2.15-.21-3.2-.5-1.63-.44-3.12-1.16-4.47-2.19-1.4-1.06-2.56-2.34-3.47-3.85-.68-1.13-1.18-2.34-1.5-3.62C.07,16.55-.06,14.9,.03,13.24c.06-1.09,.21-2.17,.49-3.23,.57-2.13,1.6-4.01,3.09-5.63,.98-1.06,2.08-1.95,3.34-2.65,1.23-.69,2.55-1.17,3.94-1.44C12.42,0,13.97-.07,15.53,.07c1.54,.13,3.02,.51,4.43,1.13,2.4,1.06,4.32,2.69,5.78,4.87,.04,.07,.08,.14,.14,.22-.04,.04-.07,.08-.12,.11-.84,.6-1.69,1.2-2.53,1.8-.04,.03-.08,.04-.13,.07-.06-.08-.11-.15-.15-.23-1.34-2.34-3.36-3.8-5.93-4.53-1.12-.32-2.26-.42-3.42-.38-.99,.03-1.97,.18-2.92,.47-1.68,.52-3.1,1.45-4.29,2.72-1.51,1.61-2.42,3.51-2.76,5.68-.24,1.49-.24,2.98,.03,4.46,.55,3.09,2.15,5.49,4.78,7.19,1.14,.73,2.4,1.16,3.73,1.37,.71,.11,1.42,.16,2.13,.14,3.13-.07,5.73-1.27,7.79-3.64,.59-.68,1.09-1.42,1.54-2.2,.06-.1,.12-.19,.17-.29h0Z"/>
        <path d="M129.03,14.02c-.91-1.12-1.81-2.23-2.71-3.35l-2.72-3.35c-.9-1.11-1.8-2.22-2.7-3.33-.9-1.11-1.81-2.23-2.7-3.33,.03-.05,.03-.06,.04-.07,0,0,.02,0,.03,0h3.96c.07,.08,.14,.16,.22,.25,2.81,3.42,5.62,6.85,8.43,10.27,.08,.1,.16,.19,.25,.3,.26-.25,.45-.52,.66-.77,.21-.26,.42-.52,.63-.77,.21-.26,.42-.52,.63-.77,.21-.26,.42-.52,.63-.77,.21-.26,.42-.52,.63-.77,.21-.26,.42-.52,.63-.78,.21-.26,.42-.52,.63-.77,.2-.25,.41-.5,.61-.75,.21-.26,.42-.52,.63-.77,.21-.26,.42-.52,.63-.77,.21-.26,.42-.52,.63-.78,.21-.26,.42-.52,.63-.77,.21-.26,.42-.52,.63-.77,.21-.26,.42-.52,.63-.77h3.95c.07,.08,0,.13-.04,.18-.51,.62-1.02,1.25-1.53,1.87-2.99,3.64-5.97,7.27-8.96,10.91-.09,.11-.17,.21-.27,.34,.08,.11,.15,.21,.23,.31,1.64,2.02,3.29,4.03,4.93,6.04,1.92,2.35,3.84,4.71,5.76,7.06,.07,.09,.14,.18,.22,.28-.11,.07-.22,.05-.31,.05-1.05,0-2.1,0-3.14,0h-.78c-.34-.4-.67-.82-1-1.23-.33-.41-.66-.82-1-1.24-.33-.41-.67-.82-1-1.23-.33-.41-.66-.82-1-1.24s-.67-.82-1-1.23c-.33-.41-.66-.82-1-1.24s-.66-.82-1-1.24c-.33-.41-.67-.82-1-1.24-.33-.41-.66-.82-1-1.24-.14,.05-.2,.17-.28,.26-.83,1.01-1.66,2.03-2.49,3.05-2.06,2.52-4.12,5.04-6.18,7.56-.06,.07-.12,.14-.2,.23-.41,0-.84,0-1.26,0h-1.31c-.42,0-.84,0-1.25,0-.02-.05-.03-.06-.03-.07,0,0,0-.02,.01-.03,.02-.03,.04-.06,.06-.08,3.61-4.45,7.22-8.9,10.83-13.35,0,0,0-.02,.04-.08h0Z"/>
        <path d="M116.12,24.68c0,.07,.02,.14,.03,.2,.03,.7,0,2.42-.03,2.7-.06,.01-.12,.03-.19,.04-.1,0-.21,0-.31,0h-19.52c-.16,0-.32,.02-.49-.03,0-.07-.02-.14-.02-.21,0-.1,0-.21,0-.31V7.24c0-.16,0-.32,0-.49,.09-.01,.15-.03,.22-.04,.09,0,.18,0,.28,0h18.65c.15,0,.3,0,.46,0,.01,.08,.03,.15,.03,.21,0,.86,0,1.72,0,2.59,0,.07-.01,.13-.02,.22-.08,0-.15,.02-.21,.02-.13,0-.25,0-.38,0-5.1,0-10.2,0-15.3,0-.15,0-.3-.04-.43,.05-.05,.31-.04,4.85,0,5.16,.06,0,.12,.02,.19,.02,.1,0,.21,0,.31,0h9.78c.14,0,.27,0,.38,0,.03,.03,.04,.04,.05,.05,0,0,0,.02,0,.03,0,.87,0,1.75,.01,2.62,0,.08,0,.16-.01,.26-.07,.01-.13,.04-.2,.04-.1,0-.21,0-.31,0h-10.2c-.02,.09-.04,.15-.04,.21,0,.08,0,.16,0,.24v5.73c0,.13-.02,.27,.03,.42,.07,0,.14,.02,.2,.02,.12,0,.23,0,.35,0h16.24c.15,0,.3-.02,.45,.04h0Z"/>
        <path d="M84.42,9.79c-.17-.05-.31-.03-.44-.03h-11.43c-.13,0-.27,.02-.4-.03-.05-.28-.06-2.63-.01-2.99,.06,0,.12-.02,.19-.03,.08,0,.16,0,.24,0h17.48c.12,0,.25,0,.39,0-.02,.14-.11,.22-.18,.31-.79,1.03-1.58,2.07-2.37,3.1-3.61,4.71-7.21,9.43-10.82,14.14-.07,.1-.16,.19-.2,.3,.04,.09,.11,.07,.16,.07,.12,0,.23,0,.35,0h12.57c.13,0,.27-.02,.41,.03,0,.05,.03,.09,.03,.13,0,.9,0,1.79,0,2.69,0,.03-.02,.06-.04,.1-.07,0-.13,.02-.2,.02h-19.12c-.05-.13,.04-.19,.09-.26,.68-.9,1.36-1.8,2.04-2.69,3.68-4.84,7.36-9.69,11.05-14.53,.08-.1,.17-.19,.22-.35h0Z"/>
        <path d="M50.86,27.62c-1.09,.01-2.13,0-3.19,0-.02-.08-.04-.15-.05-.21,0-.13,0-.25,0-.38V10.14c0-.16,0-.32-.01-.5-.09-.01-.15-.03-.22-.03-.1,0-.21,0-.31,0h-7.84c-.14,0-.27,0-.43,0-.01-.08-.03-.15-.03-.21,0-.82,0-1.63,0-2.45,0-.07,.02-.13,.03-.2,.06,0,.11-.02,.15-.02h20.73c.02,.07,.04,.12,.04,.17,0,.85,0,1.7,0,2.55,0,.04-.01,.09-.02,.14-.14,.04-.28,.03-.42,.03h-7.6c-.2,0-.39,0-.59,0-.07,0-.13,.02-.21,.03-.01,.07-.03,.12-.03,.18,0,.12,0,.23,0,.34V27.13c0,.15,0,.3,0,.49h0Z"/>
        <path d="M66.36,27.59c-.33,.05-2.12,.07-3.08,.04-.07,0-.13-.01-.2-.02-.01-.05-.03-.08-.03-.12V6.8s.02-.06,.03-.11c.06,0,.13-.02,.2-.03,1.05-.03,2.74-.01,3.06,.04,0,.06,.02,.12,.02,.19,0,.09,0,.18,0,.28V27.13c0,.15,0,.3,0,.46h0Z"/>
        <path d="M35.39,27.59c-.34,.05-1.69,.07-3.04,.04-.08,0-.15-.01-.23-.02-.02-.05-.04-.08-.04-.12,0-6.89,0-13.77,0-20.66,0-.04,.02-.09,.03-.14,.07-.01,.14-.03,.2-.03,1-.03,2.75-.01,3.06,.04,0,.06,.02,.12,.03,.19,0,.09,0,.18,0,.28V27.13c0,.15,0,.3,0,.46h0Z"/>
      </g>
    </g>
  </g>
</svg>