<svg xmlns="http://www.w3.org/2000/svg" xmlns:xlink="http://www.w3.org/1999/xlink" width="260.139" height="232.409" viewBox="0 0 260.139 232.409"><defs><style>.a{fill:#131313;}.b,.k{fill:#6c63ff;}.b{opacity:0.04;}.c{opacity:0.7;}.d{fill:url(#a);}.e{fill:#3ad29f;}.f{fill:#4d8af0;}.f,.g,.h,.i{opacity:0.5;}.g{fill:#f55f44;}.h,.j{fill:#47e6b1;}.l{fill:#ffb9b9;}.m{fill:#2f2e41;}.n{fill:#575a89;}.o{fill:#7e7e7e;}.p{fill:#d0d0d0;}.q{opacity:0.1;}</style><linearGradient id="a" y1="0.5" x2="1" y2="0.5" gradientUnits="objectBoundingBox"><stop offset="0" stop-color="gray" stop-opacity="0.251"/><stop offset="0.535" stop-color="gray" stop-opacity="0.122"/><stop offset="1" stop-color="gray" stop-opacity="0.102"/></linearGradient></defs><g transform="translate(-0.004)"><path class="a" d="M413.637,76.854,332,127.094s0,103.619,81.639,160.138c81.639-56.519,81.639-160.138,81.639-160.138Z" transform="translate(-283.049 -73.601)"/><path class="b" d="M600.1,76.854l-1.4.859V286.251c.463.328.927.655,1.4.98,81.639-56.519,81.639-160.138,81.639-160.138Z" transform="translate(-469.02 -73.601)"/><g class="c" transform="translate(104.411 91.643)"><path class="d" d="M351.334,316.165l15.39,14.108L385.8,302.75l7.7,6.413L366.724,343.1l-21.8-24.368Z" transform="translate(-344.921 -302.75)"/></g><path class="e" d="M366.123,316.315l12.484,11.444,17.686-26.009,6.242,5.2-23.928,31.211L360.921,318.4Z" transform="translate(-251.667 -210.41)"/><path class="f" d="M327.024,109.32a1.112,1.112,0,0,1-.62-1.344.533.533,0,0,0,.024-.123h0a.558.558,0,0,0-1-.37h0a.532.532,0,0,0-.062.11,1.112,1.112,0,0,1-1.344.62.534.534,0,0,0-.123-.024h0a.558.558,0,0,0-.37,1h0a.534.534,0,0,0,.109.062,1.112,1.112,0,0,1,.62,1.344.536.536,0,0,0-.024.123h0a.558.558,0,0,0,1,.37h0a.536.536,0,0,0,.062-.11,1.112,1.112,0,0,1,1.344-.62.535.535,0,0,0,.123.024h0a.558.558,0,0,0,.37-1h0A.536.536,0,0,0,327.024,109.32Z" transform="translate(-276.987 -94.804)"/><path class="f" d="M181.024,434.32a1.112,1.112,0,0,1-.62-1.344.534.534,0,0,0,.024-.123h0a.558.558,0,0,0-1-.37h0a.535.535,0,0,0-.062.109,1.112,1.112,0,0,1-1.344.62.536.536,0,0,0-.123-.024h0a.558.558,0,0,0-.37,1h0a.535.535,0,0,0,.11.062,1.112,1.112,0,0,1,.62,1.344.535.535,0,0,0-.024.123h0a.558.558,0,0,0,1,.37h0a.533.533,0,0,0,.062-.109,1.112,1.112,0,0,1,1.344-.62.538.538,0,0,0,.123.024h0a.558.558,0,0,0,.37-1h0a.535.535,0,0,0-.11-.062Z" transform="translate(-175.182 -321.426)"/><circle class="g" cx="1.816" cy="1.816" r="1.816" transform="translate(224.728 75.07)"/><circle class="g" cx="1.816" cy="1.816" r="1.816" transform="translate(34.934 204.928)"/><circle class="g" cx="1.816" cy="1.816" r="1.816" transform="translate(255.603 144.993)"/><path class="f" d="M866.024,138.32a1.112,1.112,0,0,1-.62-1.344.531.531,0,0,0,.024-.123h0a.558.558,0,0,0-1-.37h0a.532.532,0,0,0-.062.11,1.112,1.112,0,0,1-1.344.62.534.534,0,0,0-.123-.024h0a.558.558,0,0,0-.37,1h0a.536.536,0,0,0,.11.062,1.112,1.112,0,0,1,.62,1.344.531.531,0,0,0-.024.123h0a.558.558,0,0,0,1,.37h0a.538.538,0,0,0,.062-.11,1.112,1.112,0,0,1,1.344-.62.534.534,0,0,0,.123.024h0a.558.558,0,0,0,.37-1h0A.535.535,0,0,0,866.024,138.32Z" transform="translate(-652.832 -115.026)"/><path class="f" d="M966.024,766.32a1.112,1.112,0,0,1-.62-1.344.531.531,0,0,0,.024-.123h0a.558.558,0,0,0-1-.37h0a.532.532,0,0,0-.062.109,1.112,1.112,0,0,1-1.344.62.534.534,0,0,0-.123-.024h0a.558.558,0,0,0-.37,1h0a.541.541,0,0,0,.11.062,1.112,1.112,0,0,1,.62,1.344.531.531,0,0,0-.024.123h0a.558.558,0,0,0,1,.37h0a.529.529,0,0,0,.062-.109,1.112,1.112,0,0,1,1.344-.62.53.53,0,0,0,.123.024h0a.558.558,0,0,0,.37-1h0a.534.534,0,0,0-.109-.062Z" transform="translate(-722.562 -552.93)"/><path class="f" d="M174.024,244.32a1.112,1.112,0,0,1-.62-1.344.536.536,0,0,0,.024-.123h0a.558.558,0,0,0-1-.37h0a.535.535,0,0,0-.062.11,1.112,1.112,0,0,1-1.344.62.535.535,0,0,0-.123-.024h0a.558.558,0,0,0-.37,1h0a.534.534,0,0,0,.11.062,1.112,1.112,0,0,1,.62,1.344.534.534,0,0,0-.024.123h0a.558.558,0,0,0,1,.37h0a.533.533,0,0,0,.062-.109,1.112,1.112,0,0,1,1.344-.62.535.535,0,0,0,.123.024h0a.558.558,0,0,0,.37-1h0A.535.535,0,0,0,174.024,244.32Z" transform="translate(-170.3 -188.939)"/><circle class="h" cx="1.816" cy="1.816" r="1.816" transform="translate(22.221 84.151)"/><circle class="h" cx="1.816" cy="1.816" r="1.816" transform="translate(256.511 98.68)"/><g class="i" transform="translate(174.479)"><rect class="j" width="0.908" height="5.146" transform="translate(2.119)"/><rect class="j" width="0.908" height="5.146" transform="translate(5.146 2.119) rotate(90)"/></g><g class="i" transform="translate(177.809 201.598)"><rect class="j" width="0.908" height="5.146" transform="translate(2.119)"/><rect class="j" width="0.908" height="5.146" transform="translate(5.146 2.119) rotate(90)"/></g><g class="i" transform="translate(5.875 212.496)"><rect class="j" width="0.908" height="5.146" transform="translate(2.119)"/><rect class="j" width="0.908" height="5.146" transform="translate(5.146 2.119) rotate(90)"/></g><g class="i" transform="translate(212.62 119.869)"><rect class="j" width="0.908" height="5.146" transform="translate(2.119)"/><rect class="j" width="0.908" height="5.146" transform="translate(5.146 2.119) rotate(90)"/></g><path class="h" d="M793.734,117.776l1.95,1.788,2.763-4.063.975.813-3.738,4.876-2.763-3.088Z" transform="translate(-552.901 -80.538)"/><rect class="k" width="6.733" height="8.656" transform="translate(178.428 72.688) rotate(-2.221)"/><path class="l" d="M660.587,400.457s-9.317-4.451-9.168-.607,9.391,6.374,9.391,6.374Z" transform="translate(-505.78 -297.735)"/><path class="m" d="M679.07,501.067s-4.4,10.758-6.02,18.522-4.1,18.447-.916,26.024,12.227,29.846,12.32,32.249-.775,4.843,1.147,4.768,12.383-3.368,12.807-4.828-3.569-5.156-3.569-5.156l-9.861-30.9,10.289-20.131,7.421,30.032,1.454,37.483s7.134-2.2,8.169-.317c0,0,3.2-4.455,3.6-6.4s-1.509-38.924-1.509-38.924,6.548-42.125,1.262-41.92S689.675,489.105,679.07,501.067Z" transform="translate(-519.151 -365.817)"/><path class="n" d="M702.735,768.391s-4.876,10.777-5.338,11.276-3.639,5.435-1.237,5.342,8.076-2.72,12.252-6.732,9.682-10.963,9.182-11.425a28.355,28.355,0,0,0-3.919-1.773Z" transform="translate(-536.36 -553.5)"/><path class="n" d="M780.4,793.776s-.294,4.824-1.181,6.784-.775,4.843,1.628,4.75,8.613-1.3,8.613-1.3.369-2.9-.13-3.364-2.626-5.673-1.721-7.152S780.4,793.776,780.4,793.776Z" transform="translate(-594.541 -572.903)"/><path class="l" d="M779.973,278.6s5.122,7.983,7.119,9.831-3.621,5.916-3.621,5.916L773.417,295.7s.127-9.149-.391-10.092S779.973,278.6,779.973,278.6Z" transform="translate(-590.559 -214.279)"/><path class="o" d="M742.547,308.043s2.071,3.77,3.993,3.7,11.865-4.31,12.289-5.771,3.293,10.46,3.293,10.46l-24.328,42.814-5.934-4.1L734.735,330l2.362-13.567Z" transform="translate(-561.873 -233.276)"/><path class="p" d="M731.577,339.7a13.463,13.463,0,0,0-1.493,6.314c0,.1.008.192.016.288.23,4.448,1.869,9.591,2.457,13.332.427,2.683.305,4.642-1.265,5.1-3.807,1.11.555,1.9-14.174,6.806s-17.3.671-17.337-.29,2.086-8.263,1.587-8.724-6.985,6.046-8.944,5.16-.224-5.767-.224-5.767,4.414-10.278,4.321-12.681,6.686-13.735,6.686-13.735l4.611-30.018s1.773-3.919,4.157-4.493a5.906,5.906,0,0,1,4.362.793l-3.99,8.818-4.209,15.564.7,5.748s4.895-10.3,8.109-14.271,10.069-13.385,10.069-13.385,1.6-5.4.392-7.013,5.039-1.861,7.7,4.774c1.412,3.516,3.7,8.76,5.14,13.642,1.279,4.325,1.884,8.368.616,10.68C738.935,329.873,734.062,334.514,731.577,339.7Z" transform="translate(-533.723 -226.613)"/><path class="q" d="M828.76,368.22c-1.937,3.531-6.811,8.171-9.3,13.355-.649-2.338-1.441-4.757-1.441-4.757s-3.036-16.246,5.945-20.444a6.011,6.011,0,0,1,4.174,1.167C829.423,361.866,830.027,365.909,828.76,368.22Z" transform="translate(-621.61 -268.491)"/><path class="p" d="M692.443,392.191l-7.614,2.22-10.572.41-1.088,9.186,17.374,1.251S694.884,393.059,692.443,392.191Z" transform="translate(-520.948 -293.486)"/><path class="l" d="M758.957,494.231s-10.186,1.69-7.861,4.755,11.349-.157,11.349-.157Z" transform="translate(-575.045 -364.638)"/><path class="q" d="M784.528,461.5c.23,4.448,1.869,9.592,2.457,13.332-3.245,3.071-6.331,5.78-7.494,5.825-2.4.093-6.266-.238-7.689.3s-2.258-8.575-2.258-8.575a7.879,7.879,0,0,1,4.638-4.511A52.764,52.764,0,0,0,784.528,461.5Z" transform="translate(-588.15 -341.818)"/><path class="p" d="M790.139,346.838s8.132-1.278,7.693,12.215.857,22.105-2.414,24.639-13.895,14.014-16.3,14.108-6.266-.238-7.689.3-2.258-8.575-2.258-8.575a7.88,7.88,0,0,1,4.638-4.511c3.788-1.591,12.714-7.231,12.639-9.153s-2.258-8.575-2.258-8.575S781.158,351.037,790.139,346.838Z" transform="translate(-587.892 -261.839)"/><circle class="l" cx="10.58" cy="10.58" r="10.58" transform="translate(171.662 54.982)"/><path class="m" d="M735.838,227.68a2.043,2.043,0,0,1-.89.446.635.635,0,0,1-.736-.51,2.637,2.637,0,0,1-1.009,1.295c-.494.258-1.258.042-1.33-.511a2.335,2.335,0,0,1-.537,1.133.8.8,0,0,1-1.13.038,29.057,29.057,0,0,1,.151,3.6,4.583,4.583,0,0,0,1.3,3.263c1.323,1.151,3.312.867,5.052.649a1.534,1.534,0,0,1,.792.043c.651.278.622,1.185.631,1.893a5.259,5.259,0,0,0,4.6,4.994,2.636,2.636,0,0,0,1.959-.478c.494-.419.746-1.1,1.313-1.416.921-.512,2.038.235,2.711,1.045s1.337,1.807,2.38,1.955c1.379.2,2.43-1.21,2.945-2.5a14.6,14.6,0,0,0-.29-11.342C750.869,224.994,741.03,224,735.838,227.68Z" transform="translate(-560.72 -177.282)"/></g></svg>