<svg xmlns="http://www.w3.org/2000/svg" width="260.139" height="223.771" viewBox="0 0 260.139 223.771"><defs><style>.a{fill:#4d8af0;}.a,.b,.c,.d{opacity:0.5;}.b{fill:#f55f44;}.c,.e{fill:#47e6b1;}.f{fill:#303030;}.g{opacity:0.1;}.h{fill:#e6e6e6;}.i{fill:#131313;}.j{fill:#2f2e41;}.k{fill:#3f3d56;}.l{fill:#a0616a;}.m,.p{fill:#ffb8b8;}.m{opacity:0.79;}.n{fill:#7e7e7e;}.o{fill:#d0d0d0;}.q{fill:#eba5a7;}.r{fill:#f2f2f2;}</style></defs><g transform="translate(11.335 3)"><g transform="translate(-11.339 -3)"><path class="a" d="M327.024,109.32a1.112,1.112,0,0,1-.62-1.344.533.533,0,0,0,.024-.123h0a.558.558,0,0,0-1-.37h0a.532.532,0,0,0-.062.11,1.112,1.112,0,0,1-1.344.62.534.534,0,0,0-.123-.024h0a.558.558,0,0,0-.37,1h0a.534.534,0,0,0,.109.062,1.112,1.112,0,0,1,.62,1.344.536.536,0,0,0-.024.123h0a.558.558,0,0,0,1,.37h0a.536.536,0,0,0,.062-.11,1.112,1.112,0,0,1,1.344-.62.535.535,0,0,0,.123.024h0a.558.558,0,0,0,.37-1h0A.536.536,0,0,0,327.024,109.32Z" transform="translate(-276.987 -94.804)"/><path class="a" d="M181.024,434.32a1.112,1.112,0,0,1-.62-1.344.534.534,0,0,0,.024-.123h0a.558.558,0,0,0-1-.37h0a.535.535,0,0,0-.062.109,1.112,1.112,0,0,1-1.344.62.536.536,0,0,0-.123-.024h0a.558.558,0,0,0-.37,1h0a.535.535,0,0,0,.11.062,1.112,1.112,0,0,1,.62,1.344.535.535,0,0,0-.024.123h0a.558.558,0,0,0,1,.37h0a.533.533,0,0,0,.062-.109,1.112,1.112,0,0,1,1.344-.62.538.538,0,0,0,.123.024h0a.558.558,0,0,0,.37-1h0a.535.535,0,0,0-.11-.062Z" transform="translate(-175.182 -321.426)"/><circle class="b" cx="1.816" cy="1.816" r="1.816" transform="translate(224.728 75.07)"/><circle class="b" cx="1.816" cy="1.816" r="1.816" transform="translate(34.934 204.928)"/><circle class="b" cx="1.816" cy="1.816" r="1.816" transform="translate(255.603 144.993)"/><path class="a" d="M866.024,138.32a1.112,1.112,0,0,1-.62-1.344.531.531,0,0,0,.024-.123h0a.558.558,0,0,0-1-.37h0a.532.532,0,0,0-.062.11,1.112,1.112,0,0,1-1.344.62.534.534,0,0,0-.123-.024h0a.558.558,0,0,0-.37,1h0a.536.536,0,0,0,.11.062,1.112,1.112,0,0,1,.62,1.344.531.531,0,0,0-.024.123h0a.558.558,0,0,0,1,.37h0a.538.538,0,0,0,.062-.11,1.112,1.112,0,0,1,1.344-.62.534.534,0,0,0,.123.024h0a.558.558,0,0,0,.37-1h0A.535.535,0,0,0,866.024,138.32Z" transform="translate(-652.832 -115.026)"/><path class="a" d="M966.024,766.32a1.112,1.112,0,0,1-.62-1.344.531.531,0,0,0,.024-.123h0a.558.558,0,0,0-1-.37h0a.532.532,0,0,0-.062.109,1.112,1.112,0,0,1-1.344.62.534.534,0,0,0-.123-.024h0a.558.558,0,0,0-.37,1h0a.541.541,0,0,0,.11.062,1.112,1.112,0,0,1,.62,1.344.531.531,0,0,0-.024.123h0a.558.558,0,0,0,1,.37h0a.529.529,0,0,0,.062-.109,1.112,1.112,0,0,1,1.344-.62.53.53,0,0,0,.123.024h0a.558.558,0,0,0,.37-1h0a.534.534,0,0,0-.109-.062Z" transform="translate(-722.562 -552.93)"/><path class="a" d="M174.024,244.32a1.112,1.112,0,0,1-.62-1.344.536.536,0,0,0,.024-.123h0a.558.558,0,0,0-1-.37h0a.535.535,0,0,0-.062.11,1.112,1.112,0,0,1-1.344.62.535.535,0,0,0-.123-.024h0a.558.558,0,0,0-.37,1h0a.534.534,0,0,0,.11.062,1.112,1.112,0,0,1,.62,1.344.534.534,0,0,0-.024.123h0a.558.558,0,0,0,1,.37h0a.533.533,0,0,0,.062-.109,1.112,1.112,0,0,1,1.344-.62.535.535,0,0,0,.123.024h0a.558.558,0,0,0,.37-1h0A.535.535,0,0,0,174.024,244.32Z" transform="translate(-170.3 -188.939)"/><circle class="c" cx="1.816" cy="1.816" r="1.816" transform="translate(22.221 84.151)"/><circle class="c" cx="1.816" cy="1.816" r="1.816" transform="translate(256.511 98.68)"/><g class="d" transform="translate(174.479)"><rect class="e" width="0.908" height="5.146" transform="translate(2.119)"/><rect class="e" width="0.908" height="5.146" transform="translate(5.146 2.119) rotate(90)"/></g><g class="d" transform="translate(177.809 201.598)"><rect class="e" width="0.908" height="5.146" transform="translate(2.119)"/><rect class="e" width="0.908" height="5.146" transform="translate(5.146 2.119) rotate(90)"/></g><g class="d" transform="translate(5.875 212.496)"><rect class="e" width="0.908" height="5.146" transform="translate(2.119)"/><rect class="e" width="0.908" height="5.146" transform="translate(5.146 2.119) rotate(90)"/></g><g class="d" transform="translate(212.62 119.869)"><rect class="e" width="0.908" height="5.146" transform="translate(2.119)"/><rect class="e" width="0.908" height="5.146" transform="translate(5.146 2.119) rotate(90)"/></g><path class="c" d="M793.734,117.776l1.95,1.788,2.763-4.063.975.813-3.738,4.876-2.763-3.088Z" transform="translate(-552.901 -80.538)"/></g><path class="f" d="M375.821,573.406c-7.283,19.015-46.565,42.38-97.211,56.228-59.587,16.3-112.337,13.249-117.822-6.806s48.341,6.435,107.931-9.861c32.538-8.9,60.063-28.714,79.244-41.6,15.944-10.72,26.122-16.654,28.611-7.548A15.226,15.226,0,0,1,375.821,573.406Z" transform="translate(-160.403 -419.342)"/><ellipse class="g" cx="27.084" cy="2.708" rx="27.084" ry="2.708" transform="translate(41.87 201.971)"/><ellipse class="g" cx="12.323" cy="2.708" rx="12.323" ry="2.708" transform="translate(6.12 199.534)"/><path class="h" d="M506.7,229.953c-1.083,0-2.173-.035-3.246-.1l.034-.541c1.063.068,2.142.1,3.209.1h.032v.542h-.025Zm3.306-.108-.035-.541c1.074-.07,2.16-.176,3.227-.316l.07.537c-1.078.141-2.176.249-3.262.319Zm-9.814-.311c-1.08-.14-2.169-.318-3.235-.528l.1-.532c1.055.208,2.132.384,3.2.522Zm16.31-.541-.105-.531c1.055-.209,2.118-.457,3.157-.735l.14.523c-1.051.281-2.125.531-3.192.743Zm-22.738-.726c-1.05-.28-2.105-.6-3.138-.948l.173-.513c1.021.345,2.066.661,3.1.937Zm29.067-.969-.174-.513c1.016-.345,2.035-.729,3.028-1.142l.208.5C524.893,226.562,523.863,226.95,522.835,227.3Zm-35.279-1.134c-1.005-.416-2.011-.871-2.99-1.354l.24-.486c.968.477,1.963.928,2.957,1.339Zm41.322-1.375-.24-.486c.965-.477,1.925-.992,2.855-1.53l.271.469c-.94.544-1.911,1.065-2.886,1.547Zm-47.2-1.526c-.943-.545-1.88-1.128-2.785-1.733l.3-.45c.9.6,1.823,1.176,2.755,1.714Zm52.871-1.753-.3-.45c.893-.6,1.779-1.233,2.633-1.89l.33.43c-.863.664-1.759,1.307-2.661,1.911Zm-58.322-1.891c-.863-.662-1.716-1.362-2.535-2.08l.357-.407c.81.71,1.654,1.4,2.508,2.058Zm63.516-2.1-.358-.407c.809-.71,1.6-1.456,2.366-2.217l.383.383c-.77.77-1.574,1.523-2.392,2.241Zm-68.444-2.22c-.77-.769-1.525-1.573-2.243-2.39l.407-.358c.71.808,1.457,1.6,2.219,2.365Zm73.078-2.414-.407-.357c.71-.809,1.4-1.653,2.059-2.506l.43.33c-.663.863-1.364,1.715-2.082,2.533Zm-77.4-2.508c-.663-.862-1.307-1.757-1.913-2.66l.45-.3c.6.894,1.236,1.779,1.892,2.632Zm81.4-2.69-.45-.3c.6-.9,1.177-1.822,1.716-2.754l.469.271c-.545.942-1.129,1.879-1.734,2.784Zm-85.044-2.749c-.546-.942-1.067-1.912-1.549-2.885l.485-.24c.477.962.992,1.923,1.532,2.854Zm88.328-2.928-.486-.24c.477-.965.928-1.96,1.341-2.956l.5.207c-.418,1.007-.874,2.013-1.356,2.989Zm-91.232-2.938c-.417-1-.807-2.034-1.157-3.062l.513-.175c.346,1.016.731,2.035,1.144,3.028Zm93.745-3.123-.513-.174c.346-1.02.662-2.064.939-3.1l.523.14c-.281,1.051-.6,2.106-.949,3.137Zm-95.856-3.074c-.282-1.051-.533-2.125-.745-3.192l.531-.106c.21,1.056.458,2.118.737,3.157Zm97.546-3.256-.532-.105c.209-1.056.385-2.132.525-3.2l.537.07c-.14,1.079-.319,2.167-.53,3.234Zm-98.826-3.169c-.142-1.076-.25-2.173-.322-3.261l.541-.036c.071,1.076.178,2.162.318,3.226Zm99.673-3.327-.54-.035c.069-1.07.1-2.16.1-3.241v-.129h.542v.127c0,1.093-.035,2.2-.105,3.277Zm-99.562-3.211H456.6v-.066c0-1.067.034-2.147.1-3.209l.541.034c-.066,1.05-.1,2.119-.1,3.176Zm99.013-3.434c-.072-1.074-.18-2.16-.322-3.226l.537-.071c.143,1.078.253,2.175.326,3.261Zm-98.6-3.035-.537-.069c.139-1.079.316-2.168.526-3.235l.532.1C457.861,171.3,457.686,172.377,457.548,173.445Zm97.749-3.389c-.211-1.055-.461-2.117-.741-3.156l.523-.141c.283,1.051.536,2.124.749,3.191Zm-96.5-2.97-.523-.139c.28-1.052.6-2.108.946-3.139l.513.173C459.389,165,459.074,166.045,458.8,167.086Zm94.811-3.287c-.348-1.017-.734-2.035-1.148-3.027l.5-.209c.418,1,.809,2.032,1.161,3.06Zm-92.735-2.858-.5-.207c.416-1.006.871-2.012,1.352-2.99l.486.239C461.734,158.95,461.284,159.945,460.873,160.941Zm90.243-3.115c-.477-.96-.993-1.92-1.535-2.852l.468-.272c.548.943,1.07,1.913,1.552,2.884Zm-87.377-2.707-.469-.271c.544-.943,1.126-1.88,1.731-2.786l.45.3c-.6.9-1.175,1.824-1.712,2.756Zm84.122-2.892c-.6-.894-1.239-1.778-1.9-2.629l.429-.331c.664.86,1.308,1.755,1.916,2.658Zm-80.521-2.5-.43-.33c.662-.864,1.362-1.717,2.078-2.536l.408.357c-.709.81-1.4,1.654-2.056,2.509ZM543.9,147.1c-.711-.807-1.458-1.6-2.222-2.362l.382-.384c.772.769,1.527,1.572,2.246,2.388Zm-72.292-2.25-.383-.382c.769-.77,1.572-1.526,2.389-2.244l.358.407c-.808.711-1.6,1.458-2.363,2.22Zm67.7-2.325c-.812-.71-1.656-1.4-2.51-2.055l.329-.43c.863.661,1.717,1.36,2.537,2.077Zm-62.834-1.957-.331-.429c.861-.664,1.756-1.308,2.659-1.914l.3.45c-.893.6-1.778,1.237-2.63,1.893Zm57.684-1.985c-.9-.6-1.824-1.173-2.757-1.711l.27-.469c.944.544,1.882,1.126,2.787,1.729Zm-52.306-1.627-.272-.468c.94-.546,1.91-1.067,2.884-1.551l.241.485C483.744,135.9,482.784,136.415,481.854,136.954Zm46.684-1.611c-.967-.476-1.963-.925-2.959-1.336l.206-.5c1.007.415,2.013.869,2.991,1.35Zm-40.884-1.266-.208-.5c1-.418,2.033-.808,3.061-1.159l.175.513C489.666,133.279,488.647,133.664,487.655,134.078Zm34.884-1.208c-1.02-.344-2.065-.658-3.1-.933l.138-.524c1.052.279,2.108.6,3.139.944Zm-28.756-.884-.141-.523c1.05-.283,2.124-.534,3.191-.747l.106.531c-1.056.211-2.118.46-3.157.74Zm22.491-.777c-1.055-.206-2.131-.381-3.2-.518l.069-.537c1.08.139,2.169.315,3.236.523Zm-16.136-.493-.071-.537c1.076-.142,2.173-.251,3.261-.324l.036.54c-1.076.072-2.162.18-3.226.32Zm9.708-.333c-1.04-.065-2.1-.1-3.144-.1h-.1v-.542h.1c1.059,0,2.129.033,3.179.1Z" transform="translate(-376.377 -106.095)"/><path class="h" d="M547.555,255.62v-.542c1.058,0,2.126-.05,3.173-.146l.05.539C549.714,255.57,548.63,255.62,547.555,255.62Zm-3.222-.145c-1.069-.1-2.144-.245-3.2-.44l.1-.533c1.035.192,2.094.337,3.147.433Zm9.64-.447-.1-.532c1.038-.193,2.078-.438,3.092-.726l.148.521c-1.03.293-2.087.541-3.141.738ZM538,254.3c-1.031-.292-2.06-.636-3.06-1.023l.2-.505c.984.381,2,.719,3.012,1.007Zm22.177-1.038-.2-.5c.982-.381,1.959-.814,2.9-1.285l.242.485c-.96.479-1.952.919-2.95,1.306Zm-28.19-1.288c-.959-.478-1.908-1.006-2.819-1.571l.285-.46c.9.556,1.831,1.076,2.775,1.546Zm33.956-1.591-.286-.46c.9-.556,1.776-1.161,2.618-1.8l.327.432c-.856.648-1.75,1.262-2.66,1.826Zm-39.437-1.8c-.854-.645-1.69-1.338-2.483-2.06l.365-.4c.781.711,1.6,1.394,2.445,2.029Zm44.577-2.087-.365-.4c.779-.711,1.535-1.466,2.246-2.247l.4.365c-.723.792-1.49,1.56-2.281,2.282Zm-49.344-2.254c-.724-.792-1.418-1.626-2.065-2.479l.432-.327c.636.84,1.32,1.661,2.033,2.441Zm53.688-2.51-.432-.327c.637-.843,1.242-1.724,1.8-2.62l.46.285c-.564.91-1.179,1.805-1.826,2.661Zm-57.58-2.628c-.566-.91-1.1-1.857-1.575-2.816l.484-.242c.472.943.994,1.876,1.551,2.772Zm60.977-2.851-.484-.242c.47-.943.9-1.921,1.284-2.906l.505.2c-.388,1-.827,1.993-1.305,2.952Zm-63.86-2.914c-.388-1-.734-2.027-1.028-3.058l.521-.149c.29,1.015.63,2.028,1.012,3.011Zm66.189-3.1-.521-.148c.288-1.015.531-2.056.724-3.092l.533.1C581.689,228.153,581.442,229.21,581.149,230.241Zm-67.957-3.1c-.2-1.051-.346-2.126-.445-3.2l.539-.05c.1,1.052.245,2.111.438,3.146Zm69.134-3.236-.54-.049c.1-1.047.144-2.115.144-3.173V220.6h.542v.078c0,1.077-.049,2.161-.146,3.225Zm-69.187-3.182H512.6v-.04c0-1.06.048-2.131.143-3.182l.54.049c-.094,1.035-.141,2.089-.141,3.133Zm68.641-3.293c-.1-1.053-.248-2.111-.442-3.145l.532-.1c.2,1.05.349,2.125.449,3.194ZM513.71,214.4l-.533-.1c.194-1.053.441-2.11.732-3.142l.521.147C514.144,212.326,513.9,213.366,513.71,214.4Zm66.9-3.209c-.291-1.014-.632-2.027-1.016-3.009l.5-.2c.389,1,.737,2.027,1.031,3.057Zm-65.17-2.9-.505-.2c.386-1,.824-1.993,1.3-2.953l.485.241C516.247,206.335,515.816,207.313,515.436,208.3Zm62.863-3.014c-.472-.941-.995-1.873-1.554-2.77l.46-.287c.568.911,1.1,1.857,1.578,2.814Zm-60.038-2.67-.461-.285c.564-.911,1.177-1.807,1.822-2.663l.432.326C519.42,200.835,518.816,201.717,518.261,202.614Zm56.682-2.716c-.638-.84-1.323-1.66-2.036-2.439l.4-.366c.724.791,1.42,1.624,2.068,2.477Zm-52.86-2.352-.4-.364c.721-.793,1.488-1.561,2.278-2.285l.366.4c-.779.712-1.533,1.469-2.243,2.249Zm48.574-2.329c-.781-.71-1.6-1.392-2.447-2.026l.326-.433c.855.644,1.692,1.337,2.485,2.058Zm-43.89-1.955-.327-.432c.854-.648,1.748-1.263,2.658-1.83l.286.46c-.9.557-1.776,1.164-2.616,1.8Zm38.82-1.864c-.9-.555-1.832-1.074-2.777-1.543l.241-.485c.961.477,1.91,1,2.821,1.567Zm-33.433-1.49-.243-.484c.958-.48,1.95-.92,2.948-1.309l.2.5c-.982.383-1.959.816-2.9,1.289Zm27.748-1.332c-.985-.38-2-.717-3.014-1l.147-.521c1.031.291,2.061.634,3.061,1.019Zm-21.836-.97-.149-.521c1.03-.295,2.087-.544,3.14-.741l.1.532c-1.036.194-2.077.44-3.091.729Zm15.729-.752c-1.036-.19-2.095-.335-3.147-.429l.048-.54c1.069.1,2.144.243,3.2.436Zm-9.493-.418-.05-.539c1.064-.1,2.148-.15,3.222-.152v.542c-1.058,0-2.125.052-3.173.15Z" transform="translate(-417.21 -146.929)"/><path class="i" d="M453.8,219.4a16.37,16.37,0,0,1-4.729-2.39l.925,2.27A70.979,70.979,0,0,1,410.534,88.7l.487,2.4a16.37,16.37,0,0,1,2.613-4.609,16.357,16.357,0,0,1-5.294.21l1.911,1.534a71.525,71.525,0,0,0,38.807,131.594c.32,0,.641-.006.962-.01l-.741,2.336A16.356,16.356,0,0,1,453.8,219.4Z" transform="translate(-318.736 -74.562)"/><path class="i" d="M707.3,95.608a71.524,71.524,0,0,0-65.7-50.89l.864-2.292A16.358,16.358,0,0,1,637.8,44.94a16.372,16.372,0,0,1,4.6,2.638l-.8-2.318a70.983,70.983,0,0,1,39.134,128.2l-.628-2.371a16.371,16.371,0,0,1-2.339,4.754,16.357,16.357,0,0,1,5.272-.52l-2-1.419a71.535,71.535,0,0,0,26.262-78.3Z" transform="translate(-508.506 -42.426)"/><path class="g" d="M880.785,573.406c-1.866.084-3.784.127-5.739.127a103.117,103.117,0,0,1-22.119-2.169c15.944-10.72,26.122-16.654,28.611-7.548A15.226,15.226,0,0,1,880.785,573.406Z" transform="translate(-665.367 -419.341)"/><path class="j" d="M334.7,87.744h0c-7.507,0-12.972,5.1-14.814,12.375L317.6,111.036h1.625l3.521-8.938L322,111.036h1.825l1.354-4.6-.285,4.6h21.952V99.9A12.152,12.152,0,0,0,334.7,87.744Z" transform="translate(-275.024 -75.471)"/><path class="k" d="M168.2,344.147l5.146,24.869,28.167.415-7.042-26.113Z" transform="translate(-122.642 -250.335)"/><path class="g" d="M168.2,344.147l5.146,24.869,28.167.415-7.042-26.113Z" transform="translate(-122.642 -250.335)"/><path class="j" d="M315.608,317.244s-11.1,15.438-10.563,21.667S312.629,446.7,312.629,446.7l16.521.813-4.875-73.126,4.063-19.771L338.358,446.7l20.313.542L340.525,327.807,337,317.244Z" transform="translate(-265.857 -242.813)"/><path class="l" d="M336.951,143.244s3.521,6.5-1.083,10.833-6.771,15.979-6.771,15.979l26-1.9-2.167-14.625s-5.688-3.521-4.333-9.75Z" transform="translate(-283.409 -115.939)"/><path class="m" d="M336.951,143.244s3.521,6.5-1.083,10.833-6.771,15.979-6.771,15.979l26-1.9-2.167-14.625s-5.688-3.521-4.333-9.75Z" transform="translate(-283.409 -115.939)"/><path class="n" d="M339.18,207.244s1.625,4.875,8.667,4.333a24.164,24.164,0,0,0,11.917-4.333v31.688l-21.667-.813V218.89Z" transform="translate(-289.971 -162.605)"/><path class="o" d="M314.291,173.7l-2.07,1.5-12.458,5.958,4.333,22.479,2.979,4.875v5.958l-7.313,10.292a111.7,111.7,0,0,0-2.708,22.209c-.271,12.458,2.979,9.208,4.6,8.938s5.146-1.083,5.146-1.083l-5.688-26.542,9.479-13.813,1.625-5.417s-.542-12.729-2.708-17.875C309.512,191.182,313.653,177.618,314.291,173.7Z" transform="translate(-260.033 -138.148)"/><path class="o" d="M390.617,164.244l4.96,4.875,9.75,2.979-4.6,25.459-2.708,5.417.542,5.417s10.149,10.885,11.646,32.5c.786,11.352-.839,10.81-.839,10.81l-20.016-.248-3.25-44.959,6.229-33.854Z" transform="translate(-324.971 -131.251)"/><path class="p" d="M460.461,404.244s2.708,11.646-2.708,13-3.521-13-3.521-13Z" transform="translate(-374.418 -306.251)"/><path class="p" d="M290.405,359.613s10.429,5.848,7.779,10.762-11.977-6.16-11.977-6.16Z" transform="translate(-252.135 -273.707)"/><path class="o" d="M440.639,193.786l4.063-.542s2.438,3.25,2.708,5.688,4.6,43.6,4.6,43.6l4.333,7.854s-.271,1.354-2.437,1.354h-2.167l-.812,3.25s-1.625-6.229-7.854-2.979l-2.438-.812,1.625-2.979s-1.625-14.354-1.625-21.125-.542-14.083-.542-14.083Z" transform="translate(-364.346 -152.397)"/><ellipse class="o" cx="3.851" cy="1.444" rx="3.851" ry="1.444" transform="translate(52.821 202.854)"/><ellipse class="o" cx="3.851" cy="1.444" rx="3.851" ry="1.444" transform="translate(78.817 202.854)"/><path class="o" d="M284.368,200.244l-2.979.271-6.771,26.271s-2.708,17.333-2.167,18.146a2.488,2.488,0,0,1-.542,2.708c-.542.542,2.167,8.125,4.875,7.854a8.09,8.09,0,0,0,3.792-1.083s-2.438-7.042,3.792-9.479l1.625-5.417-1.625-8.938,2.167-12.458Z" transform="translate(-241.659 -157.501)"/><ellipse class="q" cx="0.406" cy="1.354" rx="0.406" ry="1.354" transform="translate(68.303 23.378)"/><ellipse class="q" cx="0.406" cy="1.354" rx="0.406" ry="1.354" transform="translate(49.886 23.378)"/><circle class="p" cx="8.938" cy="8.938" r="8.938" transform="translate(50.564 15.118)"/><path class="j" d="M191.341,55.276l-.228,2.167H197.3l.813-1.625-.171,1.625h7.484l-5.146-8.125-11.375.271L186.2,57.443h4.063Z" transform="translate(-135.767 -35.961)"/><circle class="f" cx="28.438" cy="28.438" r="28.438" transform="translate(181.242 88.379)"/><circle class="f" cx="21.125" cy="21.125" r="21.125" transform="translate(190.45 48.566)"/><circle class="f" cx="18.146" cy="18.146" r="18.146" transform="translate(193.43 13.628)"/><circle class="i" cx="7.042" cy="7.042" r="7.042" transform="translate(204.805 2.253)"/><path class="n" d="M223.536,712.874c1.816,6.714,8.038,10.872,8.038,10.872s3.276-6.728,1.46-13.442S225,699.432,225,699.432,221.72,706.16,223.536,712.874Z" transform="translate(-206.038 -521.491)"/><path class="o" d="M201.333,729.574c4.984,4.852,5.593,12.31,5.593,12.31s-7.472-.408-12.456-5.26-5.593-12.31-5.593-12.31S196.349,724.723,201.333,729.574Z" transform="translate(-181.166 -539.635)"/><circle class="r" cx="11.104" cy="11.104" r="11.104" transform="translate(119.22 62.649)"/></g></svg>