<svg xmlns="http://www.w3.org/2000/svg" width="308.892" height="266.299" viewBox="0 0 308.892 266.299"><defs><style>.a{fill:#4d8af0;}.a,.b,.c,.d{opacity:0.5;}.b{fill:#f55f44;}.c,.e{fill:#47e6b1;}.f{fill:#e6e6e6;}.g{fill:#ffb8b8;}.h{fill:#fff;}.i{fill:#1aa800;}.j{fill:#ccc;}.k{fill:#d0d0d0;}.l{fill:#131313;}.m{fill:#2f2e41;}.n{fill:#3f3d56;}.o{opacity:0.2;}</style></defs><g transform="translate(0 0)"><g transform="translate(23.441 20.147)"><path class="a" d="M327.024,109.32a1.112,1.112,0,0,1-.62-1.344.533.533,0,0,0,.024-.123h0a.558.558,0,0,0-1-.37h0a.532.532,0,0,0-.062.11,1.112,1.112,0,0,1-1.344.62.534.534,0,0,0-.123-.024h0a.558.558,0,0,0-.37,1h0a.534.534,0,0,0,.109.062,1.112,1.112,0,0,1,.62,1.344.536.536,0,0,0-.024.123h0a.558.558,0,0,0,1,.37h0a.536.536,0,0,0,.062-.11,1.112,1.112,0,0,1,1.344-.62.535.535,0,0,0,.123.024h0a.558.558,0,0,0,.37-1h0A.536.536,0,0,0,327.024,109.32Z" transform="translate(-276.987 -94.804)"/><path class="a" d="M181.024,434.32a1.112,1.112,0,0,1-.62-1.344.534.534,0,0,0,.024-.123h0a.558.558,0,0,0-1-.37h0a.535.535,0,0,0-.062.109,1.112,1.112,0,0,1-1.344.62.536.536,0,0,0-.123-.024h0a.558.558,0,0,0-.37,1h0a.535.535,0,0,0,.11.062,1.112,1.112,0,0,1,.62,1.344.535.535,0,0,0-.024.123h0a.558.558,0,0,0,1,.37h0a.533.533,0,0,0,.062-.109,1.112,1.112,0,0,1,1.344-.62.538.538,0,0,0,.123.024h0a.558.558,0,0,0,.37-1h0a.535.535,0,0,0-.11-.062Z" transform="translate(-175.182 -321.426)"/><circle class="b" cx="1.816" cy="1.816" r="1.816" transform="translate(224.728 75.07)"/><circle class="b" cx="1.816" cy="1.816" r="1.816" transform="translate(34.934 204.928)"/><circle class="b" cx="1.816" cy="1.816" r="1.816" transform="translate(255.603 144.993)"/><path class="a" d="M866.024,138.32a1.112,1.112,0,0,1-.62-1.344.531.531,0,0,0,.024-.123h0a.558.558,0,0,0-1-.37h0a.532.532,0,0,0-.062.11,1.112,1.112,0,0,1-1.344.62.534.534,0,0,0-.123-.024h0a.558.558,0,0,0-.37,1h0a.536.536,0,0,0,.11.062,1.112,1.112,0,0,1,.62,1.344.531.531,0,0,0-.024.123h0a.558.558,0,0,0,1,.37h0a.538.538,0,0,0,.062-.11,1.112,1.112,0,0,1,1.344-.62.534.534,0,0,0,.123.024h0a.558.558,0,0,0,.37-1h0A.535.535,0,0,0,866.024,138.32Z" transform="translate(-652.832 -115.026)"/><path class="a" d="M966.024,766.32a1.112,1.112,0,0,1-.62-1.344.531.531,0,0,0,.024-.123h0a.558.558,0,0,0-1-.37h0a.532.532,0,0,0-.062.109,1.112,1.112,0,0,1-1.344.62.534.534,0,0,0-.123-.024h0a.558.558,0,0,0-.37,1h0a.541.541,0,0,0,.11.062,1.112,1.112,0,0,1,.62,1.344.531.531,0,0,0-.024.123h0a.558.558,0,0,0,1,.37h0a.529.529,0,0,0,.062-.109,1.112,1.112,0,0,1,1.344-.62.53.53,0,0,0,.123.024h0a.558.558,0,0,0,.37-1h0a.534.534,0,0,0-.109-.062Z" transform="translate(-722.562 -552.93)"/><path class="a" d="M174.024,244.32a1.112,1.112,0,0,1-.62-1.344.536.536,0,0,0,.024-.123h0a.558.558,0,0,0-1-.37h0a.535.535,0,0,0-.062.11,1.112,1.112,0,0,1-1.344.62.535.535,0,0,0-.123-.024h0a.558.558,0,0,0-.37,1h0a.534.534,0,0,0,.11.062,1.112,1.112,0,0,1,.62,1.344.534.534,0,0,0-.024.123h0a.558.558,0,0,0,1,.37h0a.533.533,0,0,0,.062-.109,1.112,1.112,0,0,1,1.344-.62.535.535,0,0,0,.123.024h0a.558.558,0,0,0,.37-1h0A.535.535,0,0,0,174.024,244.32Z" transform="translate(-170.3 -188.939)"/><circle class="c" cx="1.816" cy="1.816" r="1.816" transform="translate(22.221 84.151)"/><circle class="c" cx="1.816" cy="1.816" r="1.816" transform="translate(256.511 98.68)"/><g class="d" transform="translate(174.479)"><rect class="e" width="0.908" height="5.146" transform="translate(2.119)"/><rect class="e" width="0.908" height="5.146" transform="translate(5.146 2.119) rotate(90)"/></g><g class="d" transform="translate(177.809 201.598)"><rect class="e" width="0.908" height="5.146" transform="translate(2.119)"/><rect class="e" width="0.908" height="5.146" transform="translate(5.146 2.119) rotate(90)"/></g><g class="d" transform="translate(5.875 212.496)"><rect class="e" width="0.908" height="5.146" transform="translate(2.119)"/><rect class="e" width="0.908" height="5.146" transform="translate(5.146 2.119) rotate(90)"/></g><g class="d" transform="translate(212.62 119.869)"><rect class="e" width="0.908" height="5.146" transform="translate(2.119)"/><rect class="e" width="0.908" height="5.146" transform="translate(5.146 2.119) rotate(90)"/></g><path class="c" d="M793.734,117.776l1.95,1.788,2.763-4.063.975.813-3.738,4.876-2.763-3.088Z" transform="translate(-552.901 -80.538)"/></g><path class="f" d="M621.253,85.414H610.27a8.155,8.155,0,0,1-7.55,11.235h-48.2a8.155,8.155,0,0,1-7.55-11.235H536.711a17.165,17.165,0,0,0-17.165,17.165V320.128a17.165,17.165,0,0,0,17.165,17.165h84.542a17.165,17.165,0,0,0,17.165-17.165V102.579a17.165,17.165,0,0,0-17.165-17.165Z" transform="translate(-393.086 -79.086)"/><path class="f" d="M607.782,331.757H523.645a23.359,23.359,0,0,1-23.333-23.333V90.556a23.359,23.359,0,0,1,23.333-23.333h84.138a23.359,23.359,0,0,1,23.332,23.333v39.365h1.45v28.964h-1.45V308.425a23.359,23.359,0,0,1-23.332,23.333ZM523.645,67.919a22.663,22.663,0,0,0-22.637,22.637V308.424a22.663,22.663,0,0,0,22.637,22.637h84.138a22.663,22.663,0,0,0,22.637-22.637V158.189h1.45V130.617h-1.45V90.556a22.663,22.663,0,0,0-22.637-22.637Z" transform="translate(-380.543 -67.223)"/><path class="g" d="M428.017,473.609l5.566,8.621,18.1-.144s7.609-4.3,9.139,1.369c.524,1.94-7.441,2.465-8.191,2.511-1.875.114-20.575,3.358-21.73,1.7s-7.227-7.466-7.227-7.466Z" transform="translate(-330.563 -332.247)"/><path class="h" d="M585.134,184.892a1.219,1.219,0,0,0-1.217,1.217v71.657a1.219,1.219,0,0,0,1.217,1.217h71.657a1.219,1.219,0,0,0,1.217-1.217V186.109a1.219,1.219,0,0,0-1.217-1.217Z" transform="translate(-435.066 -143.96)"/><path class="i" d="M750.226,397.721H737.045c-.824-7.333.995-12.8,0-15.818h13.181A82.523,82.523,0,0,0,750.226,397.721Z" transform="translate(-534.784 -272.442)"/><rect class="j" width="110.964" height="50.091" transform="translate(130.413 143.026)"/><path class="k" d="M670.568,245.858a22.9,22.9,0,1,1-22.9-22.9,22.9,22.9,0,0,1,22.9,22.9Z" transform="translate(-461.712 -168.788)"/><path class="h" d="M521.986,470.641a.871.871,0,0,0-.87.87v48a.87.87,0,0,0,.87.87H630.863a.87.87,0,0,0,.87-.87v-48a.871.871,0,0,0-.87-.87Z" transform="translate(-394.11 -330.311)"/><path class="l" d="M743.57,500.586a.522.522,0,0,0-.522.522v2.53a.522.522,0,0,0,.522.522h14.9a.522.522,0,0,0,.522-.522v-2.53a.522.522,0,0,0-.522-.522Z" transform="translate(-538.843 -349.84)"/><path class="l" d="M581.419,500.586a.522.522,0,0,0-.522.522v2.53a.522.522,0,0,0,.522.522h4.34a.522.522,0,0,0,.522-.522v-2.53a.522.522,0,0,0-.522-.522Z" transform="translate(-433.096 -349.84)"/><path class="l" d="M548.469,500.586a.522.522,0,0,0-.522.522v2.53a.522.522,0,0,0,.522.522h4.339a.522.522,0,0,0,.522-.522v-2.53a.522.522,0,0,0-.522-.522Z" transform="translate(-411.608 -349.84)"/><path class="l" d="M615.236,500.586a.522.522,0,0,0-.522.522v2.53a.522.522,0,0,0,.522.522h37.519a.522.522,0,0,0,.522-.522v-2.53a.522.522,0,0,0-.522-.522Z" transform="translate(-455.15 -349.84)"/><path class="l" d="M640.383,573.423a.522.522,0,0,0-.522.522v2.53a.522.522,0,0,0,.522.522h4.34a.522.522,0,0,0,.522-.522v-2.53a.522.522,0,0,0-.522-.522Z" transform="translate(-471.549 -397.341)"/><path class="l" d="M607.432,573.423a.522.522,0,0,0-.522.522v2.53a.522.522,0,0,0,.522.522h4.34a.522.522,0,0,0,.522-.522v-2.53a.522.522,0,0,0-.522-.522Z" transform="translate(-450.06 -397.341)"/><path class="l" d="M674.2,573.423a.522.522,0,0,0-.522.522v2.53a.522.522,0,0,0,.522.522h37.518a.522.522,0,0,0,.522-.522v-2.53a.522.522,0,0,0-.522-.522Z" transform="translate(-493.603 -397.341)"/><path class="l" d="M609.167,525.732a.522.522,0,0,0-.522.522v2.53a.522.522,0,0,0,.522.522h14.9a.522.522,0,0,0,.522-.522v-2.53a.522.522,0,0,0-.522-.522Z" transform="translate(-451.192 -366.239)"/><path class="l" d="M545.867,525.732a.522.522,0,0,0-.522.522v2.53a.522.522,0,0,0,.522.522h14.9a.522.522,0,0,0,.522-.522v-2.53a.522.522,0,0,0-.522-.522Z" transform="translate(-409.911 -366.239)"/><path class="l" d="M799.932,525.732a.522.522,0,0,0-.522.522v2.53a.522.522,0,0,0,.522.522h4.34a.522.522,0,0,0,.522-.522v-2.53a.522.522,0,0,0-.522-.522Z" transform="translate(-575.599 -366.239)"/><path class="l" d="M671.6,525.732a.522.522,0,0,0-.522.522v2.53a.522.522,0,0,0,.522.522h37.518a.522.522,0,0,0,.522-.522v-2.53a.522.522,0,0,0-.522-.522Z" transform="translate(-491.907 -366.239)"/><path class="l" d="M706.284,550.011a.522.522,0,0,0-.522.522v2.53a.522.522,0,0,0,.522.522h14.9a.522.522,0,0,0,.522-.522v-2.53a.522.522,0,0,0-.522-.522Z" transform="translate(-514.527 -382.072)"/><path class="l" d="M769.584,550.011a.522.522,0,0,0-.522.522v2.53a.522.522,0,0,0,.522.522h14.9a.522.522,0,0,0,.522-.522v-2.53a.522.522,0,0,0-.522-.522Z" transform="translate(-555.808 -382.072)"/><path class="l" d="M545.867,550.011a.522.522,0,0,0-.522.522v2.53a.522.522,0,0,0,.522.522h4.34a.522.522,0,0,0,.522-.522v-2.53a.522.522,0,0,0-.522-.522Z" transform="translate(-409.911 -382.072)"/><path class="l" d="M578.818,550.011a.522.522,0,0,0-.522.522v2.53a.522.522,0,0,0,.522.522h37.518a.522.522,0,0,0,.522-.522v-2.53a.522.522,0,0,0-.522-.522Z" transform="translate(-431.4 -382.072)"/><path class="m" d="M661.315,256.582s4.481-1.6,7.362,4.8a126.243,126.243,0,0,0,7.362,13.443l-2.561.64s-.64-4.481-2.241-5.121l.64,5.761s-19.2,6.722-27.846-.64l.32-2.241s-1.28.32-1.28,2.241l-.96-.96a17.2,17.2,0,0,1,3.841-4.481c1.891-1.681,2.541-4.878,2.764-6.877a8.322,8.322,0,0,1,1.916-4.532C652.546,256.4,656.034,254.039,661.315,256.582Z" transform="translate(-473.017 -189.994)"/><circle class="g" cx="8.285" cy="8.285" r="8.285" transform="translate(177.277 69.763)"/><path class="m" d="M683.052,276.211a23.385,23.385,0,0,1-7.481-7.385s-5.855,5.908-9.433,6.2-.325-7.09-.325-7.09l6.505-1.477,6.18.591,4.879,2.954Z" transform="translate(-487.591 -197.157)"/><rect class="g" width="6.261" height="6.261" transform="translate(182.419 84.587)"/><path class="m" d="M677.972,333.535a22.906,22.906,0,0,1-24.955-.776,9.4,9.4,0,0,1,8.488-5.367h7.653a9.394,9.394,0,0,1,8.815,6.144Z" transform="translate(-480.129 -236.892)"/><rect class="n" width="308.892" height="0.779" transform="translate(0 264.888)"/><path class="m" d="M406.235,381.207s4.53-1.618,7.442,4.853a127.608,127.608,0,0,0,7.442,13.589l-2.588.647s-.647-4.53-2.265-5.177l.647,5.824s-19.413,6.795-28.149-.647l.324-2.265s-1.294.324-1.294,2.265l-.971-.971a17.388,17.388,0,0,1,3.883-4.53c1.911-1.7,2.568-4.931,2.794-6.952a8.412,8.412,0,0,1,1.937-4.581C397.371,381.02,400.9,378.637,406.235,381.207Z" transform="translate(-306.531 -271.261)"/><path class="g" d="M346.133,741.9,334.852,758.63l10.5,10.5,1.362-2.723-2.334-5.446s.389-5.057,1.751-6.419,7.391-9.531,7.391-9.531Z" transform="translate(-272.638 -507.215)"/><path class="m" d="M379.45,586.458s-2.139,3.386,2.334,17.973c0,0-20.867,35.217-17.56,37.552s12.254,7.5,14.588,5.943,19.31-54.272,19.31-54.272Z" transform="translate(-291.562 -405.841)"/><path class="m" d="M331.13,781.324l-3.4,3.4c-1.751,1.751-2.918,4.279.389,6.419s14.782,10.114,18.672,7.586-4.668-4.863-4.668-4.863-1.415-5.247-2.166-4.082a8.174,8.174,0,0,0-.751,3.5Z" transform="translate(-266.874 -532.923)"/><path class="g" d="M458.985,764.9s6.224,11.476,6.224,12.837-.389,5.252-.389,5.252l11.865,2.918,4.085-1.945-1.362-3.5s-7.391-2.529-8.947-7.391-3.307-9.92-3.307-9.92Z" transform="translate(-353.591 -521.072)"/><circle class="g" cx="8.169" cy="8.169" r="8.169" transform="translate(90.028 113.319)"/><path class="g" d="M421.109,431.5l-3.9,11.206-8.548-3.815s5.835-8.947,5.835-10.114Z" transform="translate(-320.773 -303.009)"/><path class="m" d="M420.141,551.231H409.832s-7.391,11.281-3.112,23.146a61.508,61.508,0,0,1,1.955,7.371c1.493,6.92,2.98,16.294,4.5,24.907,2.14,12.1,4.353,22.7,6.758,22.891,4.863.389,14.318.324,14.318-1.621s-6.334-58.216-6.334-58.216l-1.362-2.334-.257-10.167a6.132,6.132,0,0,0-6.161-5.977Z" transform="translate(-318.638 -382.868)"/><path class="m" d="M473.875,804.808s-2.237,3.793-1.653,6.516,1.556,2.334,5.835,2.723,18.867.389,18.867-2.334-11.38-6.259-11.428-5.172-.437,3.227.73,3.616.1.1.1.1Z" transform="translate(-362.161 -548.238)"/><path class="m" d="M405.995,485.686c1.521,0,4.793-3.907,6.5-2.195,1.245,1.245,2.3,2.441,3.234,3.5,2.676,3.03,5.016,5.806,6.641,3.814.246-.3-.58.394.109-.074a1.667,1.667,0,0,0,.672-1.809c-2.359-7.39-3.828-14.47-1.952-20.384a4.8,4.8,0,0,0,.2-1.447q0-.107.01-.215c.1-1.091.074-5-4.4-9.478-4.093-4.093-4.878-6.608-4.982-7.743-.024-.264-6.622-7.11-6.622-7.11a1.659,1.659,0,0,0-1.987.558L401.3,446a27.8,27.8,0,0,0-2.9,14.721c.572,6.594,1.566,19.633,2.381,24.337a1.718,1.718,0,0,0,.636,1.084,1.638,1.638,0,0,0,1.677.2A7.065,7.065,0,0,1,405.995,485.686Z" transform="translate(-314.027 -311.902)"/><path class="o" d="M263.981,597.223l-3.833-25.541,3.118,27.573Z" transform="translate(-169.655 -372.822)"/><path class="g" d="M433.017,494.609l5.566,8.621,18.1-.144s7.609-4.3,9.139,1.369c.524,1.94-7.441,2.466-8.191,2.511-1.875.114-20.575,3.358-21.73,1.7s-7.227-7.466-7.227-7.466Z" transform="translate(-333.824 -345.942)"/><path class="m" d="M412,476.141s3.16-2.06,7.5,1.6,5.207,6.942,5.207,6.942l-10.221,6.074S404.5,480.129,412,476.141Z" transform="translate(-321.128 -333.521)"/><path class="m" d="M428.209,399.049a23.639,23.639,0,0,1-7.562-7.465s-5.918,5.972-9.535,6.271-.329-7.167-.329-7.167l6.576-1.493,6.247.6,4.932,2.986Z" transform="translate(-321.264 -277.196)"/><ellipse class="g" cx="0.87" cy="1.565" rx="0.87" ry="1.565" transform="translate(89.195 119.72)"/></g></svg>