<svg xmlns="http://www.w3.org/2000/svg" width="280.572" height="153.146" viewBox="0 0 280.572 153.146">
  <g id="Thank_you" data-name="Thank you" transform="translate(-46.071 -73.688)">
    <path id="Path_653" data-name="Path 653" d="M-118.351-28.471l.315,6.677h-.8a8.063,8.063,0,0,0-.63-2.52,4.215,4.215,0,0,0-1.732-1.8,6.041,6.041,0,0,0-2.845-.577h-4.01V-4.934q0,2.625.567,3.275a3.152,3.152,0,0,0,2.457.882h.987V0h-12.073V-.777h1.008a2.892,2.892,0,0,0,2.562-1.092,6.371,6.371,0,0,0,.462-3.065V-26.686H-135.5a9.543,9.543,0,0,0-2.834.294,3.892,3.892,0,0,0-1.869,1.533,6.205,6.205,0,0,0-.924,3.065h-.8l.336-6.677Zm12.375,13.207h13.228v-8.146a9.532,9.532,0,0,0-.273-2.876,1.88,1.88,0,0,0-.882-.9,3.862,3.862,0,0,0-1.911-.5h-1.008v-.777h12.178v.777h-1.008a3.993,3.993,0,0,0-1.911.483,1.764,1.764,0,0,0-.913,1.018,10.123,10.123,0,0,0-.241,2.782V-5.039a9.427,9.427,0,0,0,.273,2.855,1.892,1.892,0,0,0,.861.9,3.979,3.979,0,0,0,1.932.5h1.008V0H-96.821V-.777h1.008a3.014,3.014,0,0,0,2.541-1.029q.525-.672.525-3.233V-13.71h-13.228v8.671a9.427,9.427,0,0,0,.273,2.855,1.88,1.88,0,0,0,.882.9,3.862,3.862,0,0,0,1.911.5h1.029V0h-12.2V-.777h1.008a3.04,3.04,0,0,0,2.562-1.029,6.394,6.394,0,0,0,.5-3.233V-23.411a9.532,9.532,0,0,0-.273-2.876,1.892,1.892,0,0,0-.861-.9,3.979,3.979,0,0,0-1.932-.5h-1.008v-.777h12.2v.777h-1.029a3.993,3.993,0,0,0-1.911.483,1.819,1.819,0,0,0-.9,1.018,9.718,9.718,0,0,0-.252,2.782Zm44.037,5.732H-72.961l-1.932,4.493a7.113,7.113,0,0,0-.714,2.478,1.439,1.439,0,0,0,.619,1.144,5.412,5.412,0,0,0,2.677.64V0h-8.965V-.777a4.831,4.831,0,0,0,2.31-.819A12.862,12.862,0,0,0-76.594-5.69l10.015-23.432h.735l9.91,23.684A10.8,10.8,0,0,0-53.76-1.732a4.43,4.43,0,0,0,2.719.955V0H-62.274V-.777a4.211,4.211,0,0,0,2.3-.567,1.462,1.462,0,0,0,.6-1.176,8.705,8.705,0,0,0-.84-2.918Zm-.588-1.554-4.829-11.506-4.955,11.506Zm13.551-17.385h7.727L-23.843-7.118V-23.537q0-2.625-.588-3.275a3.112,3.112,0,0,0-2.457-.882h-.987v-.777h9.91v.777h-1.008A2.892,2.892,0,0,0-21.534-26.6,6.371,6.371,0,0,0-22-23.537v24h-.756L-41.522-22.466V-4.934q0,2.625.567,3.275A3.152,3.152,0,0,0-38.5-.777h1.008V0H-47.4V-.777h.987a2.917,2.917,0,0,0,2.583-1.092,6.371,6.371,0,0,0,.462-3.065v-19.8a12.975,12.975,0,0,0-1.879-1.911,6.9,6.9,0,0,0-1.879-.861,6.693,6.693,0,0,0-1.848-.189Zm46.62,12.682L8.142-5.354a19.168,19.168,0,0,0,4.409,3.517A9.409,9.409,0,0,0,16.2-.777V0H2.662V-.777a2.925,2.925,0,0,0,1.753-.409A1.155,1.155,0,0,0,4.951-2.1a1.991,1.991,0,0,0-.2-.9A8,8,0,0,0,3.439-4.493l-9.826-9.721v9.175a9.427,9.427,0,0,0,.273,2.855,1.88,1.88,0,0,0,.882.9,3.862,3.862,0,0,0,1.911.5h.966V0H-14.491V-.777h1.008a3.04,3.04,0,0,0,2.562-1.029,6.394,6.394,0,0,0,.5-3.233V-23.432a9.66,9.66,0,0,0-.273-2.876,1.918,1.918,0,0,0-.861-.882,3.979,3.979,0,0,0-1.932-.5h-1.008v-.777H-2.356v.777h-.966a4.075,4.075,0,0,0-1.911.483,1.821,1.821,0,0,0-.9,1.008,9.6,9.6,0,0,0-.252,2.771v8.713q.42-.4,2.876-2.667Q2.725-23.1,4.027-25.006a2.751,2.751,0,0,0,.567-1.47,1.085,1.085,0,0,0-.441-.85,2.349,2.349,0,0,0-1.491-.367H2.011v-.777H12.467v.777a6.222,6.222,0,0,0-1.68.252,8.624,8.624,0,0,0-1.848.892,18.092,18.092,0,0,0-2.687,2.131q-.462.42-4.262,4.3Zm52.15-12.682h9.931v.777H59.18a4.284,4.284,0,0,0-1.6.483,6.232,6.232,0,0,0-1.911,1.386,18.886,18.886,0,0,0-2.121,2.939L46.687-12.073v7.139q0,2.625.588,3.275a3.241,3.241,0,0,0,2.52.882h.924V0H38.624V-.777h1.008a2.892,2.892,0,0,0,2.562-1.092,6.371,6.371,0,0,0,.462-3.065v-6.74L34.845-23.6a25.157,25.157,0,0,0-1.879-2.625,7.376,7.376,0,0,0-2.047-1.26,2.8,2.8,0,0,0-1.218-.21v-.777H41.879v.777h-.63a3.67,3.67,0,0,0-1.816.462,1.493,1.493,0,0,0-.829,1.386,6.643,6.643,0,0,0,1.281,2.729l5.942,9.175,5.585-8.776a6.493,6.493,0,0,0,1.26-2.939,1.865,1.865,0,0,0-.3-1.05,2.037,2.037,0,0,0-.871-.724,4.229,4.229,0,0,0-1.7-.262Zm28.437-.651a12.912,12.912,0,0,1,9.606,4.21A14.533,14.533,0,0,1,91.9-14.4,14.967,14.967,0,0,1,87.806-3.632,13.205,13.205,0,0,1,77.9.651a13.131,13.131,0,0,1-9.879-4.178,14.991,14.991,0,0,1-4-10.813,14.4,14.4,0,0,1,4.619-11.065A13.627,13.627,0,0,1,78.231-29.122Zm-.4,1.533A7.512,7.512,0,0,0,71.7-24.754q-2.876,3.527-2.876,10.33,0,6.971,2.981,10.729A7.367,7.367,0,0,0,77.854-.84a8.263,8.263,0,0,0,6.624-3.128q2.614-3.128,2.614-9.868,0-7.307-2.876-10.9A7.758,7.758,0,0,0,77.833-27.589Zm38.389-.1v-.777H126.3v.777h-1.071a2.892,2.892,0,0,0-2.583,1.407,6.424,6.424,0,0,0-.441,3.023v11.548a20.409,20.409,0,0,1-.85,6.645,8.342,8.342,0,0,1-3.338,4.052,11.9,11.9,0,0,1-6.771,1.69q-4.661,0-7.076-1.617a8.755,8.755,0,0,1-3.422-4.346,24.125,24.125,0,0,1-.672-7.013V-23.432q0-2.625-.724-3.443a2.98,2.98,0,0,0-2.341-.819H95.94v-.777h12.3v.777h-1.092a2.823,2.823,0,0,0-2.52,1.113,6.215,6.215,0,0,0-.525,3.149v12.409a27.346,27.346,0,0,0,.3,3.8,8.088,8.088,0,0,0,1.1,3.338,6,6,0,0,0,2.3,1.974,7.948,7.948,0,0,0,3.685.777,10.161,10.161,0,0,0,5-1.218,6.525,6.525,0,0,0,3.013-3.118,18.06,18.06,0,0,0,.808-6.435V-23.432q0-2.667-.588-3.338a3.085,3.085,0,0,0-2.436-.924ZM136.47-7.538h-.8l-1.848-17.007A16.245,16.245,0,0,1,133.7-26.2a3.09,3.09,0,0,1,.7-2.121,2.178,2.178,0,0,1,1.69-.8,2.116,2.116,0,0,1,1.669.8,3.567,3.567,0,0,1,.682,2.373q0,.5-.084,1.407Zm-.42,3.485a2.246,2.246,0,0,1,1.648.682,2.221,2.221,0,0,1,.682,1.627A2.246,2.246,0,0,1,137.7-.094a2.246,2.246,0,0,1-1.648.682A2.246,2.246,0,0,1,134.4-.094a2.246,2.246,0,0,1-.682-1.648A2.221,2.221,0,0,1,134.4-3.37,2.246,2.246,0,0,1,136.05-4.052Z" transform="translate(188 174)" fill="#131313"/>
    <g id="Group_2715" data-name="Group 2715" transform="translate(58.877 73.688)">
      <path id="Path_546" data-name="Path 546" d="M327.024,109.32a1.112,1.112,0,0,1-.62-1.344.533.533,0,0,0,.024-.123h0a.558.558,0,0,0-1-.37h0a.532.532,0,0,0-.062.11,1.112,1.112,0,0,1-1.344.62.534.534,0,0,0-.123-.024h0a.558.558,0,0,0-.37,1h0a.534.534,0,0,0,.109.062,1.112,1.112,0,0,1,.62,1.344.536.536,0,0,0-.024.123h0a.558.558,0,0,0,1,.37h0a.536.536,0,0,0,.062-.11,1.112,1.112,0,0,1,1.344-.62.535.535,0,0,0,.123.024h0a.558.558,0,0,0,.37-1h0A.536.536,0,0,0,327.024,109.32Z" transform="translate(-276.987 -94.804)" fill="#4d8af0" opacity="0.5"/>
      <path id="Path_547" data-name="Path 547" d="M181.024,434.32a1.112,1.112,0,0,1-.62-1.344.534.534,0,0,0,.024-.123h0a.558.558,0,0,0-1-.37h0a.535.535,0,0,0-.062.109,1.112,1.112,0,0,1-1.344.62.536.536,0,0,0-.123-.024h0a.558.558,0,0,0-.37,1h0a.535.535,0,0,0,.11.062,1.112,1.112,0,0,1,.62,1.344.535.535,0,0,0-.024.123h0a.558.558,0,0,0,1,.37h0a.533.533,0,0,0,.062-.109,1.112,1.112,0,0,1,1.344-.62.538.538,0,0,0,.123.024h0a.558.558,0,0,0,.37-1h0a.535.535,0,0,0-.11-.062Z" transform="translate(-188.182 -312.6)" fill="#4d8af0" opacity="0.5"/>
      <circle id="Ellipse_91" data-name="Ellipse 91" cx="1.816" cy="1.816" r="1.816" transform="translate(154.728 49.689)" fill="#f55f44" opacity="0.5"/>
      <circle id="Ellipse_93" data-name="Ellipse 93" cx="1.816" cy="1.816" r="1.816" transform="translate(113.021 125.015)" fill="#f55f44" opacity="0.5"/>
      <path id="Path_548" data-name="Path 548" d="M866.024,138.32a1.112,1.112,0,0,1-.62-1.344.531.531,0,0,0,.024-.123h0a.558.558,0,0,0-1-.37h0a.532.532,0,0,0-.062.11,1.112,1.112,0,0,1-1.344.62.534.534,0,0,0-.123-.024h0a.558.558,0,0,0-.37,1h0a.536.536,0,0,0,.11.062,1.112,1.112,0,0,1,.62,1.344.531.531,0,0,0-.024.123h0a.558.558,0,0,0,1,.37h0a.538.538,0,0,0,.062-.11,1.112,1.112,0,0,1,1.344-.62.534.534,0,0,0,.123.024h0a.558.558,0,0,0,.37-1h0A.535.535,0,0,0,866.024,138.32Z" transform="translate(-652.832 -115.026)" fill="#4d8af0" opacity="0.5"/>
      <path id="Path_550" data-name="Path 550" d="M174.024,244.32a1.112,1.112,0,0,1-.62-1.344.536.536,0,0,0,.024-.123h0a.558.558,0,0,0-1-.37h0a.535.535,0,0,0-.062.11,1.112,1.112,0,0,1-1.344.62.535.535,0,0,0-.123-.024h0a.558.558,0,0,0-.37,1h0a.534.534,0,0,0,.11.062,1.112,1.112,0,0,1,.62,1.344.534.534,0,0,0-.024.123h0a.558.558,0,0,0,1,.37h0a.533.533,0,0,0,.062-.109,1.112,1.112,0,0,1,1.344-.62.535.535,0,0,0,.123.024h0a.558.558,0,0,0,.37-1h0A.535.535,0,0,0,174.024,244.32Z" transform="translate(-170.3 -188.939)" fill="#4d8af0" opacity="0.5"/>
      <circle id="Ellipse_94" data-name="Ellipse 94" cx="1.816" cy="1.816" r="1.816" transform="translate(65.221 59.151)" fill="#47e6b1" opacity="0.5"/>
      <circle id="Ellipse_95" data-name="Ellipse 95" cx="1.816" cy="1.816" r="1.816" transform="translate(240.02 47.873)" fill="#47e6b1" opacity="0.5"/>
      <g id="Group_2710" data-name="Group 2710" transform="translate(174.479)" opacity="0.5">
        <rect id="Rectangle_1623" data-name="Rectangle 1623" width="0.908" height="5.146" transform="translate(2.119)" fill="#47e6b1"/>
        <rect id="Rectangle_1624" data-name="Rectangle 1624" width="0.908" height="5.146" transform="translate(5.146 2.119) rotate(90)" fill="#47e6b1"/>
      </g>
      <g id="Group_2713" data-name="Group 2713" transform="translate(262.62 121.686)" opacity="0.5">
        <rect id="Rectangle_1629" data-name="Rectangle 1629" width="0.908" height="5.146" transform="translate(2.119)" fill="#47e6b1"/>
        <rect id="Rectangle_1630" data-name="Rectangle 1630" width="0.908" height="5.146" transform="translate(5.146 2.119) rotate(90)" fill="#47e6b1"/>
      </g>
      <path id="Path_551" data-name="Path 551" d="M793.734,117.776l1.95,1.788,2.763-4.063.975.813-3.738,4.876-2.763-3.088Z" transform="translate(-679.901 -93.059)" fill="#47e6b1" opacity="0.5"/>
      <path id="Path_614" data-name="Path 614" d="M866.024,138.32a1.112,1.112,0,0,1-.62-1.344.531.531,0,0,0,.024-.123h0a.558.558,0,0,0-1-.37h0a.532.532,0,0,0-.062.11,1.112,1.112,0,0,1-1.344.62.534.534,0,0,0-.123-.024h0a.558.558,0,0,0-.37,1h0a.536.536,0,0,0,.11.062,1.112,1.112,0,0,1,.62,1.344.531.531,0,0,0-.024.123h0a.558.558,0,0,0,1,.37h0a.538.538,0,0,0,.062-.11,1.112,1.112,0,0,1,1.344-.62.534.534,0,0,0,.123.024h0a.558.558,0,0,0,.37-1h0A.535.535,0,0,0,866.024,138.32Z" transform="translate(-811.832 4.974)" fill="#4d8af0" opacity="0.5"/>
      <g id="Group_2773" data-name="Group 2773" transform="translate(201.479 148)" opacity="0.5">
        <rect id="Rectangle_1623-2" data-name="Rectangle 1623" width="0.908" height="5.146" transform="translate(2.119)" fill="#47e6b1"/>
        <rect id="Rectangle_1624-2" data-name="Rectangle 1624" width="0.908" height="5.146" transform="translate(5.146 2.119) rotate(90)" fill="#47e6b1"/>
      </g>
    </g>
  </g>
</svg>
